<svg width="39" height="39" viewBox="0 0 39 39" fill="none" xmlns="http://www.w3.org/2000/svg">
<circle cx="19.5" cy="19.5" r="19.5" fill="#55ACEE"/>
<path d="M28.8889 13.4366C28.1979 13.7556 27.4554 13.9712 26.6762 14.0682C27.4717 13.5717 28.0824 12.7856 28.3701 11.849C27.6138 12.3162 26.7865 12.6454 25.9237 12.8224C25.221 12.0428 24.2198 11.5557 23.1117 11.5557C20.9841 11.5557 19.2591 13.3516 19.2591 15.5667C19.2591 15.8811 19.2932 16.1872 19.3588 16.4809C16.1571 16.3136 13.3184 14.7167 11.4183 12.2899C11.0867 12.8823 10.8967 13.5714 10.8967 14.3064C10.8967 15.6981 11.5769 16.9258 12.6106 17.6451C11.9988 17.6252 11.4005 17.4531 10.8656 17.1433C10.8653 17.1601 10.8653 17.1769 10.8653 17.1938C10.8653 19.1373 12.1933 20.7585 13.9556 21.127C13.3883 21.2876 12.7932 21.3111 12.2159 21.1957C12.7061 22.7893 14.1289 23.9489 15.8146 23.9814C14.4961 25.0572 12.835 25.6985 11.0301 25.6985C10.7191 25.6985 10.4125 25.6794 10.1111 25.6424C11.816 26.7805 13.841 27.4446 16.0165 27.4446C23.1027 27.4446 26.9776 21.3324 26.9776 16.0319C26.9776 15.8579 26.974 15.6849 26.9665 15.513C27.7207 14.9453 28.3717 14.2421 28.8889 13.4366" fill="white"/>
</svg>
