<svg width="39" height="39" viewBox="0 0 39 39" fill="none" xmlns="http://www.w3.org/2000/svg">
<circle cx="19.5" cy="19.5" r="19.5" fill="#2D2F32"/>
<g clip-path="url(#clip0_334_2494)">
<path d="M22.8907 10.9126C23.6969 9.93445 24.2392 8.57358 24.0904 7.22217C22.9339 7.26942 21.5279 7.99238 20.6929 8.9705C19.9491 9.83995 19.2964 11.2197 19.4692 12.5475C20.7649 12.6515 22.0845 11.886 22.8907 10.9126Z" fill="white"/>
<path d="M25.794 19.503C25.7844 18.5769 26.0195 17.8067 26.3506 17.1782C27.0608 15.8221 28.2126 15.1511 28.2845 15.0991C26.9265 13.1145 24.815 12.8405 24.0664 12.8121C22.2716 12.6278 20.5632 13.8706 19.6515 13.8706C18.7397 13.8706 17.3336 12.8357 15.846 12.8641C13.8881 12.8924 12.0837 14.0029 11.076 15.7606C10.7641 16.304 10.5337 16.89 10.3753 17.5043C9.51636 20.8592 10.86 24.9796 12.5348 27.4083C13.5042 28.8117 14.6559 30.39 16.1723 30.3333C17.636 30.2766 18.183 29.3882 19.949 29.3882C21.715 29.3882 22.214 30.3333 23.7593 30.3049C25.3285 30.2766 26.3266 28.8732 27.2864 27.4651C28.3997 25.8348 28.8556 24.2566 28.8844 24.1763C28.8556 24.1621 25.8275 22.9997 25.794 19.503Z" fill="white"/>
</g>
<defs>
<clipPath id="clip0_334_2494">
<rect width="18.7778" height="23.1111" fill="white" transform="translate(10.1111 7.22217)"/>
</clipPath>
</defs>
</svg>
