<svg width="11" height="9" viewBox="0 0 11 9" fill="none" xmlns="http://www.w3.org/2000/svg">
<path d="M10.9021 1.26115L9.60896 0.0613234C9.54433 0.0156552 9.46354 -0.00576241 9.38266 0.00133238H1.62367C1.58127 0.000852803 1.53923 0.00861125 1.50026 0.024109C1.46128 0.0396069 1.42623 0.062501 1.39737 0.0913191L0.104202 1.29114C0.0618998 1.313 0.0279969 1.34655 0.00721452 1.38713C-0.00240484 1.4246 -0.00240484 1.46364 0.00721452 1.50111V8.70004C0.00721452 8.7796 0.0412755 8.85589 0.101904 8.91214C0.162533 8.9684 0.244763 9 0.330506 9H10.6758C10.7616 9 10.8438 8.9684 10.9044 8.91214C10.9651 8.85589 10.9991 8.7796 10.9991 8.70004V1.50111C11.0026 1.45698 10.9957 1.41268 10.979 1.37125C10.9623 1.32982 10.936 1.29226 10.9021 1.26115ZM0.653797 8.40009V1.80107H10.3525V8.40009H0.653797ZM7.66921 4.89061C7.70014 4.91754 7.72479 4.95006 7.74164 4.98618C7.75849 5.02229 7.76718 5.06123 7.76718 5.10058C7.76718 5.13993 7.75849 5.17886 7.74164 5.21498C7.72479 5.25109 7.70014 5.28362 7.66921 5.31055L5.72947 7.11028C5.70215 7.14065 5.66636 7.16348 5.62601 7.17627C5.58732 7.19214 5.54547 7.20034 5.50316 7.20034C5.46085 7.20034 5.41901 7.19214 5.38031 7.17627C5.33997 7.16348 5.30418 7.14065 5.27686 7.11028L3.33711 5.31055C3.30739 5.28297 3.28382 5.25024 3.26774 5.21421C3.25165 5.17819 3.24337 5.13957 3.24337 5.10058C3.24337 5.06158 3.25165 5.02297 3.26774 4.98694C3.28382 4.95092 3.30739 4.91818 3.33711 4.89061C3.36683 4.86303 3.40211 4.84116 3.44094 4.82624C3.47977 4.81132 3.52139 4.80364 3.56342 4.80364C3.60544 4.80364 3.64706 4.81132 3.68589 4.82624C3.72472 4.84116 3.76 4.86303 3.78972 4.89061L5.17987 6.17442V3.30084C5.17987 3.22129 5.21393 3.145 5.27456 3.08874C5.33519 3.03249 5.41742 3.00089 5.50316 3.00089C5.58891 3.00089 5.67114 3.03249 5.73176 3.08874C5.79239 3.145 5.82645 3.22129 5.82645 3.30084V6.17442L7.21661 4.89061C7.24563 4.86191 7.28069 4.83904 7.31961 4.82341C7.35853 4.80778 7.4005 4.79971 7.44291 4.79971C7.48532 4.79971 7.52729 4.80778 7.56621 4.82341C7.60513 4.83904 7.64019 4.86191 7.66921 4.89061Z" fill="#232323"/>
</svg>
