<svg width="23" height="23" viewBox="0 0 23 23" fill="black" xmlns="http://www.w3.org/2000/svg">
<path d="M20.2736 1H6.10835C5.64931 1 5.20907 1.18205 4.88447 1.50609C4.55988 1.83014 4.37753 2.26964 4.37753 2.7279V16.8693C4.37753 17.3276 4.55988 17.7671 4.88447 18.0911C5.20907 18.4152 5.64931 18.5972 6.10835 18.5972H20.2736C20.7319 18.5961 21.171 18.4135 21.4946 18.0896C21.8183 17.7657 22 17.3268 22 16.8693V2.7279C22 2.2704 21.8183 1.83157 21.4946 1.50765C21.171 1.18373 20.7319 1.00117 20.2736 1ZM8.69793 17.7178C9.4239 15.1149 11.2698 13.334 13.3016 13.334C15.3335 13.334 17.1838 15.1016 17.9098 17.7178H8.69793ZM21.1147 16.8737C21.1147 17.0968 21.0262 17.3109 20.8686 17.469C20.711 17.6272 20.4971 17.7166 20.2736 17.7178H18.8172C18.0337 14.5979 15.8071 12.4501 13.3016 12.4501C10.7962 12.4501 8.57399 14.5581 7.78605 17.7178H6.09949C5.87562 17.7166 5.66124 17.6273 5.50293 17.4693C5.34462 17.3113 5.25517 17.0972 5.25401 16.8737V2.73232C5.25517 2.50882 5.34462 2.2948 5.50293 2.13676C5.66124 1.97872 5.87562 1.88942 6.09949 1.88826H20.2648C20.4882 1.88943 20.7021 1.97887 20.8597 2.13704C21.0174 2.2952 21.1058 2.50923 21.1058 2.73232L21.1147 16.8737ZM17.3432 21.5581C17.3432 21.6753 17.2965 21.7877 17.2135 21.8706C17.1305 21.9534 17.0179 22 16.9005 22H5.56387C4.35382 21.9988 3.19366 21.5184 2.33802 20.6642C1.48238 19.81 1.00117 18.6518 1 17.4438V6.12626C1 6.00906 1.04664 5.89665 1.12965 5.81378C1.21267 5.7309 1.32526 5.68434 1.44266 5.68434C1.56007 5.68434 1.67266 5.7309 1.75568 5.81378C1.83869 5.89665 1.88533 6.00906 1.88533 6.12626V17.4438C1.8865 18.4174 2.27444 19.3508 2.96404 20.0393C3.65365 20.7277 4.58862 21.115 5.56387 21.1162H16.9005C17.0179 21.1162 17.1305 21.1627 17.2135 21.2456C17.2965 21.3285 17.3432 21.4409 17.3432 21.5581ZM13.3016 3.90341C12.6747 3.9069 12.0628 4.0957 11.5432 4.44598C11.0236 4.79626 10.6195 5.29233 10.382 5.87161C10.1445 6.45089 10.0841 7.08742 10.2086 7.70089C10.3331 8.31436 10.6367 8.87729 11.0813 9.31866C11.5259 9.76002 12.0914 10.06 12.7066 10.1809C13.3218 10.3017 13.9591 10.2379 14.538 9.99761C15.1169 9.75728 15.6116 9.35115 15.9596 8.83048C16.3075 8.3098 16.4932 7.6979 16.4933 7.07197C16.4927 6.65454 16.4096 6.24133 16.2488 5.85601C16.088 5.47069 15.8526 5.12084 15.5561 4.82649C15.2596 4.53215 14.9079 4.2991 14.521 4.1407C14.1341 3.9823 13.7198 3.90166 13.3016 3.90341ZM13.3016 9.35669C12.8498 9.3532 12.4091 9.21624 12.035 8.96308C11.661 8.70992 11.3704 8.35189 11.1999 7.93412C11.0294 7.51634 10.9866 7.05753 11.0769 6.6155C11.1672 6.17348 11.3866 5.76804 11.7073 5.45028C12.0281 5.13252 12.4359 4.91667 12.8793 4.82994C13.3228 4.74321 13.782 4.78947 14.1992 4.96291C14.6163 5.13634 14.9727 5.42917 15.2234 5.8045C15.4741 6.17983 15.6079 6.62085 15.6079 7.07197C15.6073 7.37333 15.5472 7.67161 15.4308 7.9497C15.3145 8.22779 15.1443 8.48021 14.9301 8.69248C14.7158 8.90475 14.4616 9.0727 14.1822 9.18668C13.9027 9.30066 13.6035 9.35844 13.3016 9.35669Z" fill="black" stroke="black" stroke-width="0.2"/>
</svg>
