<svg width="89" height="106" viewBox="0 0 89 106" fill="none" xmlns="http://www.w3.org/2000/svg">
<circle cx="44.5" cy="44.5" r="44.5" fill="url(#paint0_linear_334_2631)"/>
<path d="M24.5793 51.0279L30.9918 50.9998C31.2693 50.9998 31.5435 50.9447 31.7987 50.8378C32.0538 50.7308 32.2848 50.5742 32.4781 50.3769C32.6715 50.1797 32.8235 49.9457 32.9252 49.6886C33.0269 49.4314 33.0764 49.1563 33.0708 48.879L32.97 41.3114C36.5265 38.9059 40.7364 37.637 45.0474 37.6713C49.203 37.6549 52.6433 38.7143 56.9969 41.0805L57.1024 49.0415C57.1047 49.3188 57.1621 49.5933 57.2712 49.8492C57.3803 50.105 57.5389 50.3371 57.7379 50.5319C57.9369 50.7268 58.1723 50.8806 58.4305 50.9844C58.6887 51.0881 58.9644 51.1398 59.2419 51.1365L65.8576 51.0934C66.1351 51.0933 66.4093 51.0383 66.6645 50.9313C66.9196 50.8244 67.1505 50.6678 67.3439 50.4705C67.5373 50.2733 67.6893 50.0393 67.791 49.7821C67.8927 49.525 67.9422 49.2499 67.9366 48.9726L67.8037 40.1408C67.7835 38.6864 53.8228 31.1525 44.9126 31.1596C31.984 31.2549 22.3229 38.9616 22.3444 40.4442L22.4613 48.9391C22.4676 49.4944 22.6942 50.0263 23.0913 50.4179C23.4885 50.8095 24.0236 51.0289 24.5793 51.0279Z" fill="white"/>
<path d="M24.23 94.2H19.12V104H24.23V103.188H20.1V99.478H23.81V98.666H20.1V95.012H24.23V94.2ZM31.887 104H32.853V99.52C32.853 97.28 31.481 96.216 29.745 96.216C28.611 96.216 27.631 96.706 27.141 97.658V96.356H26.161V104H27.141V99.828C27.141 97.966 28.135 97.07 29.563 97.07C30.963 97.07 31.887 97.938 31.887 99.632V104ZM34.5724 100.164C34.5724 102.558 36.1264 104.112 38.2264 104.112C39.7384 104.112 40.8024 103.3 41.2504 102.292V104H42.2304V93.64H41.2504V98.008C40.7604 97 39.6124 96.244 38.2404 96.244C36.1264 96.244 34.5724 97.77 34.5724 100.164ZM41.2504 100.178C41.2504 102.082 39.9764 103.258 38.4084 103.258C36.7984 103.258 35.5664 102.096 35.5664 100.164C35.5664 98.218 36.7984 97.098 38.4084 97.098C39.9764 97.098 41.2504 98.274 41.2504 100.178ZM47.8615 99.1C47.8615 102.04 49.9335 104.084 52.6495 104.084C54.8335 104.084 56.4575 102.992 57.1575 101.144H56.0095C55.4635 102.418 54.3155 103.23 52.6495 103.23C50.5075 103.23 48.8695 101.648 48.8695 99.1C48.8695 96.538 50.5075 94.956 52.6495 94.956C54.3155 94.956 55.4635 95.768 56.0095 97.07H57.1575C56.4575 95.194 54.8335 94.102 52.6495 94.102C49.9335 94.102 47.8615 96.16 47.8615 99.1ZM58.6622 100.164C58.6622 102.558 60.2162 104.112 62.3022 104.112C63.8282 104.112 64.8922 103.286 65.3402 102.306V104H66.3202V96.356H65.3402V98.036C64.9062 97.07 63.8562 96.244 62.3162 96.244C60.2162 96.244 58.6622 97.77 58.6622 100.164ZM65.3402 100.178C65.3402 102.082 64.0662 103.258 62.4982 103.258C60.8882 103.258 59.6562 102.096 59.6562 100.164C59.6562 98.218 60.8882 97.098 62.4982 97.098C64.0662 97.098 65.3402 98.274 65.3402 100.178ZM68.5575 104H69.5375V93.64H68.5575V104ZM71.7567 104H72.7367V93.64H71.7567V104Z" fill="white"/>
<defs>
<linearGradient id="paint0_linear_334_2631" x1="44.5" y1="0" x2="44.5" y2="89" gradientUnits="userSpaceOnUse">
<stop offset="0.255208" stop-color="#E70B0B"/>
<stop offset="1" stop-color="#921F19"/>
</linearGradient>
</defs>
</svg>
