<svg width="10" height="10" viewBox="0 0 10 10" fill="none" xmlns="http://www.w3.org/2000/svg">
<path d="M5 0C4.0111 0 3.0444 0.293245 2.22215 0.842652C1.3999 1.39206 0.759043 2.17295 0.380604 3.08658C0.00216642 4.00021 -0.0968502 5.00555 0.0960758 5.97545C0.289002 6.94535 0.765206 7.83627 1.46447 8.53553C2.16373 9.23479 3.05465 9.711 4.02455 9.90392C4.99445 10.0969 5.99979 9.99783 6.91342 9.6194C7.82705 9.24096 8.60794 8.60009 9.15735 7.77785C9.70676 6.9556 10 5.98891 10 5C9.99858 3.67435 9.47134 2.40341 8.53397 1.46603C7.59659 0.528657 6.32565 0.00141806 5 0ZM5 0.714286C6.01296 0.71398 6.99297 1.07416 7.76464 1.73036L1.72893 7.76607C1.19989 7.1427 0.860397 6.38088 0.750597 5.57068C0.640796 4.76049 0.765277 3.93579 1.10932 3.1941C1.45337 2.4524 2.00259 1.82473 2.69205 1.38528C3.38152 0.945836 4.1824 0.712994 5 0.714286ZM5 9.28571C3.98704 9.28602 3.00703 8.92584 2.23536 8.26964L8.27107 2.23393C8.80011 2.8573 9.1396 3.61912 9.2494 4.42931C9.35921 5.23951 9.23472 6.06421 8.89068 6.8059C8.54663 7.54759 7.99741 8.17527 7.30795 8.61472C6.61848 9.05416 5.8176 9.287 5 9.28571Z" fill="#232323"/>
</svg>
