<svg width="26" height="21" viewBox="0 0 26 21" fill="none" xmlns="http://www.w3.org/2000/svg">
<path fill-rule="evenodd" clip-rule="evenodd" d="M21.0316 0.00378689C20.8661 0.0138909 20.7275 0.047834 20.6161 0.0776468L6.5366 3.8445H2.06808C0.93258 3.8445 0 4.77708 0 5.91258V18.9119C0 20.0474 0.93258 20.98 2.06808 20.98H23.9306C25.0661 20.98 25.9987 20.0474 25.9987 18.9119V5.91258C25.9987 4.77708 25.0661 3.8445 23.9306 3.8445H23.7644L23.1551 1.53638C22.8979 0.577324 21.9967 -0.0550676 21.0316 0.00378689ZM21.1055 1.18555C21.5142 1.16061 21.8967 1.41773 22.0103 1.84105L22.5365 3.8445H11.1067L20.9301 1.22248C21.0163 1.19937 21.0747 1.18742 21.1055 1.18555ZM1.18236 7.68604H24.8317V8.86851H1.18236V7.68604ZM24.8317 11.8247H1.18236V13.0072H24.8317V11.8247Z" fill="#232323"/>
</svg>
