<svg width="26" height="21" viewBox="0 0 26 21" fill="none" xmlns="http://www.w3.org/2000/svg">
<path d="M21.0327 0.00378708C20.8672 0.0138916 20.7285 0.0478364 20.6172 0.0776507L6.53693 3.8447H2.06818C0.932627 3.8447 0 4.77733 0 5.91288V18.9129C0 20.0484 0.932627 20.9811 2.06818 20.9811H23.9318C25.0674 20.9811 26 20.0484 26 18.9129V5.91288C26 4.77733 25.0674 3.8447 23.9318 3.8447H23.7656L23.1562 1.53646C22.8991 0.577353 21.9978 -0.0550704 21.0327 0.00378708ZM21.1065 1.18561C21.5153 1.16067 21.8979 1.41781 22.0114 1.84115L22.5376 3.8447H11.1072L20.9311 1.22254C21.0174 1.19943 21.0758 1.18748 21.1065 1.18561ZM2.06818 5.02651H23.9318C24.4331 5.02651 24.8182 5.41161 24.8182 5.91288V7.68561H1.18182V5.91288C1.18182 5.41161 1.56691 5.02651 2.06818 5.02651ZM1.18182 8.86742H24.8182V11.822H1.18182V8.86742ZM1.18182 13.0038H24.8182V18.9129C24.8182 19.4141 24.4331 19.7992 23.9318 19.7992H2.06818C1.56691 19.7992 1.18182 19.4141 1.18182 18.9129V13.0038Z" fill="#C0C1C3"/>
</svg>
