<svg width="33" height="33" viewBox="0 0 33 33" fill="none" xmlns="http://www.w3.org/2000/svg">
<circle cx="16.9756" cy="16.9146" r="16.0244" fill="white"/>
<path d="M24.7656 21.3217L23.03 19.4445C22.9553 19.363 22.8652 19.2972 22.7651 19.251C22.6649 19.2049 22.5567 19.1792 22.4466 19.1755C22.3366 19.1718 22.2269 19.1901 22.1239 19.2295C22.0209 19.2688 21.9267 19.3284 21.8467 19.4048L19.6497 21.4728C17.9847 21.0755 16.4778 20.1799 15.3266 18.9037C14.2025 17.6867 13.5872 16.3902 13.1099 14.4733L15.4213 12.2979C15.5022 12.2225 15.5674 12.1317 15.6132 12.0307C15.659 11.9298 15.6845 11.8206 15.6882 11.7097C15.6918 11.5987 15.6736 11.4881 15.6346 11.3842C15.5956 11.2804 15.5365 11.1854 15.4608 11.1048L13.6661 9.17199C13.5913 9.09046 13.5012 9.02469 13.4011 8.9785C13.3009 8.93232 13.1927 8.90663 13.0826 8.90293C12.9726 8.89923 12.8629 8.91759 12.7599 8.95695C12.6569 8.99631 12.5627 9.05589 12.4827 9.13222L9.92283 11.5502C9.50078 11.9479 11.047 18.0804 13.4491 20.6973C16.9596 24.4714 21.827 25.235 22.2569 24.8294L24.7222 22.5068C24.8837 22.3554 24.979 22.1455 24.9871 21.9233C24.9952 21.7011 24.9156 21.4847 24.7656 21.3217Z" fill="#232323"/>
</svg>
