<svg width="20" height="21" viewBox="0 0 20 21" fill="none" xmlns="http://www.w3.org/2000/svg">
<path d="M19.7065 16.2754L17.413 13.8154C17.3142 13.7085 17.1952 13.6224 17.0628 13.5618C16.9305 13.5013 16.7874 13.4676 16.642 13.4628C16.4965 13.4579 16.3516 13.482 16.2155 13.5336C16.0794 13.5852 15.9549 13.6632 15.8492 13.7633L12.9458 16.4734C10.7455 15.9528 8.75406 14.7792 7.23282 13.1066C5.74724 11.5118 4.93408 9.8127 4.30336 7.3006L7.35792 4.44972C7.46479 4.35095 7.55099 4.23195 7.61153 4.09962C7.67206 3.96729 7.70573 3.82426 7.71058 3.67883C7.71543 3.5334 7.69136 3.38845 7.63977 3.25238C7.58818 3.11632 7.5101 2.99184 7.41005 2.88617L5.03833 0.353216C4.93954 0.246363 4.82052 0.160175 4.68817 0.099648C4.55583 0.039121 4.41278 0.00545824 4.26733 0.00061047C4.12188 -0.0042373 3.97691 0.0198263 3.84082 0.0714068C3.70474 0.122987 3.58024 0.201059 3.47456 0.301097L0.0915968 3.4699C-0.466148 3.99108 1.57718 12.0277 4.75164 15.4571C9.39083 20.4032 15.8231 21.4038 16.3913 20.8722L19.6492 17.8285C19.8626 17.6301 19.9885 17.355 19.9992 17.0638C20.01 16.7726 19.9047 16.489 19.7065 16.2754Z" fill="#232323"/>
</svg>
