<svg width="15" height="15" viewBox="0 0 15 15" fill="none" xmlns="http://www.w3.org/2000/svg">
<path d="M12.8315 2.00001H11.309L10.8045 0.991013C10.6564 0.692393 10.4275 0.441258 10.1439 0.266096C9.86035 0.0909327 9.53333 -0.00124701 9.2 1.27411e-05H5.8C5.46667 -0.00124701 5.13965 0.0909327 4.85605 0.266096C4.57245 0.441258 4.34362 0.692393 4.1955 0.991013L3.691 2.00001H2.1685C1.59358 2.00067 1.0424 2.22935 0.63587 2.63588C0.22934 3.04241 0.000661664 3.59359 0 4.16851V12.8315C0.000661664 13.4064 0.22934 13.9576 0.63587 14.3641C1.0424 14.7707 1.59358 14.9993 2.1685 15H12.8315C13.4064 14.9993 13.9576 14.7707 14.3641 14.3641C14.7707 13.9576 14.9993 13.4064 15 12.8315V4.16851C14.9993 3.59359 14.7707 3.04241 14.3641 2.63588C13.9576 2.22935 13.4064 2.00067 12.8315 2.00001ZM14 12.8315C13.9996 13.1413 13.8764 13.4383 13.6573 13.6573C13.4383 13.8764 13.1413 13.9996 12.8315 14H2.1685C1.85872 13.9996 1.56173 13.8764 1.34268 13.6573C1.12363 13.4383 1.0004 13.1413 1 12.8315V4.16851C1.0004 3.85873 1.12363 3.56175 1.34268 3.3427C1.56173 3.12365 1.85872 3.00041 2.1685 3.00001H4C4.09334 3.00052 4.18496 2.97489 4.26449 2.92603C4.34402 2.87716 4.40828 2.80701 4.45 2.72351L5.0925 1.43851C5.15779 1.30671 5.25865 1.19579 5.38367 1.1183C5.5087 1.04081 5.65291 0.999838 5.8 1.00001H9.2C9.34743 0.999464 9.49206 1.04026 9.61748 1.11777C9.74289 1.19528 9.84406 1.3064 9.9095 1.43851L10.552 2.72351C10.5936 2.8067 10.6575 2.87665 10.7367 2.9255C10.8158 2.97434 10.907 3.00015 11 3.00001H12.8315C13.1413 3.00041 13.4383 3.12365 13.6573 3.3427C13.8764 3.56175 13.9996 3.85873 14 4.16851V12.8315Z" fill="#303134"/>
<path d="M7.5 4.50006C6.75832 4.50006 6.0333 4.71999 5.41661 5.13205C4.79993 5.54411 4.31928 6.12978 4.03545 6.815C3.75162 7.50022 3.67736 8.25422 3.82206 8.98165C3.96675 9.70908 4.3239 10.3773 4.84835 10.9017C5.3728 11.4262 6.04098 11.7833 6.76841 11.928C7.49584 12.0727 8.24984 11.9984 8.93506 11.7146C9.62029 11.4308 10.206 10.9501 10.618 10.3334C11.0301 9.71676 11.25 8.99174 11.25 8.25006C11.2489 7.25582 10.8535 6.30261 10.1505 5.59958C9.44745 4.89655 8.49424 4.50112 7.5 4.50006ZM7.5 11.0001C6.9561 11.0001 6.42442 10.8388 5.97218 10.5366C5.51995 10.2344 5.16747 9.80494 4.95933 9.30244C4.75119 8.79994 4.69673 8.24701 4.80284 7.71356C4.90895 7.18012 5.17086 6.69011 5.55546 6.30552C5.94005 5.92092 6.43005 5.65901 6.9635 5.5529C7.49695 5.44679 8.04988 5.50125 8.55238 5.70939C9.05488 5.91753 9.48437 6.27001 9.78654 6.72224C10.0887 7.17448 10.25 7.70616 10.25 8.25006C10.2492 8.97916 9.95922 9.67817 9.44367 10.1937C8.92811 10.7093 8.2291 10.9993 7.5 11.0001Z" fill="#303134"/>
</svg>
