<svg width="33" height="56" viewBox="0 0 33 56" fill="none" xmlns="http://www.w3.org/2000/svg">
<circle cx="16.5" cy="16.5" r="16.5" fill="#F9E3FE"/>
<path d="M11.0204 21.6812L10.6514 22.0509L11.0368 22.4034C12.2634 23.5253 13.8444 24.182 15.5049 24.2594L16.0282 24.2838V23.76V20.9105V20.4536L15.5732 20.4125C14.927 20.3542 14.4781 20.1477 14.1865 19.968C14.039 19.8771 13.9287 19.7913 13.8426 19.7237C13.8394 19.7212 13.8359 19.7185 13.8324 19.7157C13.7972 19.688 13.7473 19.6487 13.704 19.6204C13.6842 19.6074 13.6265 19.5697 13.5498 19.5454C13.491 19.5268 13.2295 19.4605 13.0227 19.6757L11.0204 21.6812Z" stroke="#C445E6"/>
<path d="M13.2951 19.9184L13.6229 19.5906L13.3207 19.239C12.8733 18.7183 12.6014 18.0698 12.5438 17.3857L12.5051 16.9277H12.0455H9.19604H8.67192L8.6966 17.4513C8.7749 19.1123 9.4313 20.6937 10.5523 21.9219L10.9051 22.3084L11.2751 21.9384L13.2951 19.9184Z" stroke="#C445E6"/>
<path d="M13.3207 14.9833L13.6231 14.6314L13.2948 14.3036L11.2748 12.2868L10.9052 11.9177L10.5526 12.3032C9.43069 13.5298 8.77398 15.1107 8.69659 16.7713L8.6722 17.2945H9.19604H12.0455H12.5051L12.5438 16.8365C12.6014 16.1525 12.8733 15.504 13.3207 14.9833Z" stroke="#C445E6"/>
<path d="M13.0375 14.5614L13.3653 14.8892L13.7169 14.5871C14.2376 14.1397 14.8861 13.8678 15.5702 13.8101L16.0282 13.7715V13.3119V10.4624V9.93828L15.5046 9.96296C13.8436 10.0413 12.2622 10.6977 11.034 11.8186L10.6475 12.1714L11.0175 12.5415L13.0375 14.5614Z" stroke="#C445E6"/>
<path d="M19.1034 12.3181L19.3774 12.0463L19.1838 11.7124C19.087 11.5453 19.0546 11.3486 19.0926 11.1593L19.1702 10.7734L18.8132 10.6074C17.9872 10.2234 17.0941 10.0045 16.1842 9.96292L15.6614 9.93904V10.4624V13.3119V13.774L16.122 13.8103C16.4184 13.8337 16.71 13.899 16.988 14.0043L17.2888 14.1182L17.5172 13.8916L19.1034 12.3181Z" stroke="#C445E6"/>
<path d="M18.6531 19.6622L18.3253 19.3323L17.9726 19.6354C17.4519 20.0828 16.8034 20.3547 16.1194 20.4124L15.6614 20.451V20.9107V23.7601V24.2831L16.1838 24.2596C17.843 24.1851 19.4238 23.532 20.6519 22.4138L21.0381 22.0622L20.6699 21.6917L18.6531 19.6622Z" stroke="#C445E6"/>
<path d="M20.4145 21.9384L20.7845 22.3084L21.1373 21.9219C22.2583 20.6937 22.9147 19.1123 22.993 17.4513L23.0177 16.9277H22.4935H19.644H19.1844L19.1458 17.3857C19.0881 18.0698 18.8162 18.7183 18.3688 19.239L18.748 19.5648L18.3945 19.9184L20.4145 21.9384Z" stroke="#C445E6"/>
<path d="M19.0559 15.4344L18.8259 15.6649L18.9436 15.9685C19.0518 16.2473 19.1199 16.5401 19.146 16.838L19.1859 17.2945H19.6441H22.4936H23.0151L22.9931 16.7734C22.9548 15.8641 22.7393 14.9711 22.3589 14.1444L22.1914 13.7804L21.7997 13.8646C21.6109 13.9051 21.4139 13.8729 21.2478 13.7745L20.9928 14.2046V13.7046C21.0193 13.7046 20.9646 13.703 20.9174 13.7097C20.8506 13.7192 20.7926 13.7407 20.7446 13.7665C20.6791 13.8017 20.6307 13.8472 20.618 13.859C20.6174 13.8597 20.6168 13.8602 20.6163 13.8607C20.581 13.8935 20.5239 13.9517 20.4347 14.0425L20.4322 14.0451C20.4233 14.0542 20.4139 14.0637 20.4041 14.0737C20.2038 14.2778 19.8167 14.6721 19.0559 15.4344Z" stroke="#C445E6"/>
<path d="M15.1231 16.2523C15.1236 16.3775 15.1449 16.5004 15.1848 16.6165L15.0087 16.7939L14.9957 16.807L14.9837 16.821C14.8499 16.9772 14.78 17.1781 14.788 17.3837C14.7959 17.5892 14.8811 17.7841 15.0265 17.9296C15.172 18.075 15.3669 18.1602 15.5724 18.1682C15.778 18.1761 15.9789 18.1062 16.1351 17.9724L16.1491 17.9604L16.1622 17.9474L16.3402 17.7707C16.4582 17.8112 16.5823 17.8319 16.7075 17.8319C16.8564 17.8319 17.0039 17.8026 17.1414 17.7455C17.279 17.6885 17.404 17.6049 17.5092 17.4996L20.8683 14.1405L21.2218 13.787L20.8683 13.4334L19.5227 12.0879L19.1697 11.7349L18.8162 12.0872C18.0759 12.825 17.488 13.4068 17.0217 13.8683C16.3472 14.5359 15.9273 14.9515 15.6689 15.2225C15.4599 15.4416 15.3084 15.6138 15.2229 15.7758C15.1183 15.9742 15.1213 16.146 15.1228 16.228C15.123 16.2363 15.1231 16.2438 15.1231 16.2502L15.1231 16.2523Z" stroke="#C445E6"/>
<path d="M18.8534 10.756C18.7373 10.9549 18.6845 11.1845 18.7022 11.4141C18.7084 11.503 18.719 11.642 18.7967 11.8002C18.8642 11.9375 18.9676 12.0599 19.0827 12.1838C19.218 12.3294 19.4291 12.538 19.7482 12.8532C19.9731 13.0753 20.2516 13.3504 20.595 13.6938L20.5949 13.6938L20.5992 13.6979C20.6197 13.718 20.6412 13.7394 20.6636 13.7617C20.7574 13.855 20.8655 13.9626 20.9705 14.0387C21.1382 14.1603 21.3179 14.2256 21.5394 14.2406C21.703 14.2571 21.8683 14.2369 22.0232 14.1814C22.1813 14.1247 22.3244 14.0328 22.4416 13.9125C22.5455 13.8079 22.628 13.684 22.6845 13.5478C22.7415 13.4102 22.7708 13.2628 22.7708 13.1138C22.7708 12.9889 22.7502 12.8651 22.7099 12.7472C22.8377 12.6203 22.9583 12.5023 23.0707 12.3921C23.3605 12.1084 23.5966 11.8773 23.7643 11.6827C23.9142 11.5089 24.0431 11.3288 24.1316 11.1222C24.2226 10.9095 24.26 10.6942 24.26 10.4622C24.26 9.99375 24.0739 9.54445 23.7426 9.21318C23.4113 8.88191 22.962 8.6958 22.4936 8.6958C21.986 8.6958 21.6278 8.88133 21.2555 9.20126C21.051 9.37699 20.8107 9.62292 20.5182 9.92242C20.4165 10.0265 20.3086 10.137 20.1936 10.2533C20.1393 10.235 20.0834 10.2208 20.0264 10.2108C19.7987 10.1712 19.5642 10.2021 19.3545 10.2996C19.1448 10.397 18.97 10.5563 18.8534 10.756Z" stroke="#C445E6"/>
<path d="M3.47 49.06V52H2.76V44.95H4.87C5.66333 44.95 6.25333 45.1333 6.64 45.5C7.03333 45.8667 7.23 46.37 7.23 47.01C7.23 47.6633 7.02667 48.17 6.62 48.53C6.22 48.8833 5.63667 49.06 4.87 49.06H3.47ZM4.81 48.46C5.41667 48.46 5.85333 48.3367 6.12 48.09C6.38667 47.8367 6.52 47.4767 6.52 47.01C6.52 46.53 6.38667 46.1667 6.12 45.92C5.85333 45.6667 5.41667 45.54 4.81 45.54H3.47V48.46H4.81ZM8.17617 44.92C8.17617 44.7733 8.22284 44.6567 8.31617 44.57C8.41617 44.4833 8.54284 44.44 8.69617 44.44C8.84951 44.44 8.97284 44.4833 9.06617 44.57C9.15951 44.6567 9.20617 44.7733 9.20617 44.92C9.20617 45.06 9.15951 45.1733 9.06617 45.26C8.97284 45.3467 8.84951 45.39 8.69617 45.39C8.54284 45.39 8.41617 45.3467 8.31617 45.26C8.22284 45.1733 8.17617 45.06 8.17617 44.92ZM9.04617 46.54V52H8.33617V46.54H9.04617ZM12.9727 46.47C13.6661 46.47 14.2394 46.6533 14.6927 47.02C15.1527 47.3867 15.4327 47.8733 15.5327 48.48H14.8027C14.7294 48.0467 14.5261 47.7067 14.1927 47.46C13.8594 47.2067 13.4494 47.08 12.9627 47.08C12.6094 47.08 12.2827 47.16 11.9827 47.32C11.6894 47.48 11.4527 47.7267 11.2727 48.06C11.0994 48.3867 11.0127 48.79 11.0127 49.27C11.0127 49.75 11.0994 50.1567 11.2727 50.49C11.4527 50.8167 11.6894 51.06 11.9827 51.22C12.2827 51.38 12.6094 51.46 12.9627 51.46C13.4494 51.46 13.8594 51.3367 14.1927 51.09C14.5261 50.8367 14.7294 50.4933 14.8027 50.06H15.5327C15.4327 50.6667 15.1527 51.1533 14.6927 51.52C14.2394 51.8867 13.6661 52.07 12.9727 52.07C12.4527 52.07 11.9894 51.96 11.5827 51.74C11.1827 51.5133 10.8694 51.19 10.6427 50.77C10.4161 50.3433 10.3027 49.8433 10.3027 49.27C10.3027 48.6967 10.4161 48.2 10.6427 47.78C10.8694 47.3533 11.1827 47.03 11.5827 46.81C11.9894 46.5833 12.4527 46.47 12.9727 46.47ZM19.7132 52L17.5032 49.5V52H16.7932V44.6H17.5032V48.94L19.6732 46.54H20.5432L18.0332 49.24L20.6132 52H19.7132ZM23.8216 51.49C24.315 51.49 24.7283 51.3667 25.0616 51.12C25.395 50.8733 25.595 50.54 25.6616 50.12H26.4016C26.3016 50.7 26.025 51.17 25.5716 51.53C25.1183 51.89 24.545 52.07 23.8516 52.07C23.3316 52.07 22.8683 51.96 22.4616 51.74C22.0616 51.5133 21.7483 51.19 21.5216 50.77C21.295 50.3433 21.1816 49.8433 21.1816 49.27C21.1816 48.6967 21.295 48.2 21.5216 47.78C21.7483 47.3533 22.0616 47.03 22.4616 46.81C22.8683 46.5833 23.3316 46.47 23.8516 46.47C24.385 46.47 24.845 46.5833 25.2316 46.81C25.625 47.03 25.9216 47.3267 26.1216 47.7C26.3283 48.0733 26.4316 48.48 26.4316 48.92C26.4316 49.1067 26.4183 49.2767 26.3916 49.43H21.8716C21.8783 49.89 21.9716 50.2767 22.1516 50.59C22.3383 50.8967 22.5783 51.1233 22.8716 51.27C23.165 51.4167 23.4816 51.49 23.8216 51.49ZM23.8516 47.04C23.4983 47.04 23.175 47.1133 22.8816 47.26C22.5883 47.4067 22.3483 47.6333 22.1616 47.94C21.9816 48.24 21.885 48.6167 21.8716 49.07H25.7316C25.7583 48.6233 25.685 48.2467 25.5116 47.94C25.3383 47.6333 25.105 47.4067 24.8116 47.26C24.5183 47.1133 24.1983 47.04 23.8516 47.04ZM28.4016 47.67C28.5616 47.2767 28.8183 46.9733 29.1716 46.76C29.525 46.5467 29.955 46.44 30.4616 46.44V47.2H30.2316C29.705 47.2 29.2683 47.3433 28.9216 47.63C28.575 47.91 28.4016 48.37 28.4016 49.01V52H27.6916V46.54H28.4016V47.67Z" fill="#ABABAB"/>
</svg>
