<svg width="48" height="49" viewBox="0 0 48 49" fill="none" xmlns="http://www.w3.org/2000/svg">
<ellipse cx="23.5" cy="16.5" rx="15.5" ry="16.5" fill="#C6FFB3"/>
<path d="M0.48 44.5C0.48 46.6 1.96 48.06 3.9 48.06C5.46 48.06 6.62 47.28 7.12 45.96H6.3C5.91 46.87 5.09 47.45 3.9 47.45C2.37 47.45 1.2 46.32 1.2 44.5C1.2 42.67 2.37 41.54 3.9 41.54C5.09 41.54 5.91 42.12 6.3 43.05H7.12C6.62 41.71 5.46 40.93 3.9 40.93C1.96 40.93 0.48 42.4 0.48 44.5ZM13.6548 45.27C13.6548 43.53 12.4648 42.46 10.9248 42.46C9.39484 42.46 8.19484 43.53 8.19484 45.27C8.19484 47 9.36484 48.08 10.9048 48.08C12.4448 48.08 13.6548 47 13.6548 45.27ZM8.90484 45.27C8.90484 43.77 9.87484 43.07 10.9148 43.07C11.9548 43.07 12.9348 43.77 12.9348 45.27C12.9348 46.77 11.9348 47.47 10.9048 47.47C9.86484 47.47 8.90484 46.77 8.90484 45.27ZM19.0209 48H19.7109V44.8C19.7109 43.2 18.7309 42.44 17.4909 42.44C16.6809 42.44 15.9809 42.79 15.6309 43.47V42.54H14.9309V48H15.6309V45.02C15.6309 43.69 16.3409 43.05 17.3609 43.05C18.3609 43.05 19.0209 43.67 19.0209 44.88V48ZM21.459 46.52C21.459 47.61 21.969 48 22.919 48H23.669V47.4H23.029C22.399 47.4 22.169 47.19 22.169 46.52V43.13H23.669V42.54H22.169V41.17H21.459V42.54H20.699V43.13H21.459V46.52ZM24.5034 45.26C24.5034 46.97 25.6134 48.08 27.1034 48.08C28.1934 48.08 28.9534 47.49 29.2734 46.79V48H29.9734V42.54H29.2734V43.74C28.9634 43.05 28.2134 42.46 27.1134 42.46C25.6134 42.46 24.5034 43.55 24.5034 45.26ZM29.2734 45.27C29.2734 46.63 28.3634 47.47 27.2434 47.47C26.0934 47.47 25.2134 46.64 25.2134 45.26C25.2134 43.87 26.0934 43.07 27.2434 43.07C28.3634 43.07 29.2734 43.91 29.2734 45.27ZM31.2515 45.27C31.2515 47 32.3615 48.08 33.9015 48.08C35.2715 48.08 36.1615 47.31 36.4115 46.22H35.6615C35.4715 47.02 34.8215 47.49 33.9015 47.49C32.8315 47.49 31.9615 46.75 31.9615 45.27C31.9615 43.79 32.8315 43.06 33.9015 43.06C34.8215 43.06 35.4815 43.54 35.6615 44.32H36.4115C36.1615 43.19 35.2715 42.46 33.9015 42.46C32.3615 42.46 31.2515 43.54 31.2515 45.27ZM37.9043 46.52C37.9043 47.61 38.4143 48 39.3643 48H40.1143V47.4H39.4743C38.8443 47.4 38.6143 47.19 38.6143 46.52V43.13H40.1143V42.54H38.6143V41.17H37.9043V42.54H37.1443V43.13H37.9043V46.52ZM45.0488 46.55C45.0188 44.62 41.7887 45.41 41.7887 43.93C41.7887 43.45 42.2488 43.06 42.9788 43.06C43.8088 43.06 44.2588 43.52 44.2988 44.13H44.9988C44.9388 43.08 44.1688 42.46 42.9988 42.46C41.8488 42.46 41.0788 43.13 41.0788 43.94C41.0788 45.99 44.3588 45.2 44.3588 46.55C44.3588 47.07 43.9188 47.49 43.1388 47.49C42.2488 47.49 41.7288 47.06 41.6688 46.46H40.9488C41.0388 47.46 41.9088 48.08 43.1488 48.08C44.2788 48.08 45.0488 47.43 45.0488 46.55Z" fill="#ABABAB"/>
<path d="M21.1984 16.8792C18.9302 18.3118 14.8951 22.0365 18.3333 22.6095C22.6311 23.3258 30.1521 22.9677 29.794 22.2514" stroke="#4FB42C"/>
<path d="M25.8541 16.8792C28.1223 18.3118 32.5492 22.0365 29.111 22.6095C24.8132 23.3258 17.2586 22.9677 17.6503 22.2514" stroke="#4FB42C"/>
<circle cx="23.4462" cy="13.2978" r="4.29776" stroke="#4FB42C" stroke-width="1.2"/>
</svg>
