<svg width="8" height="9" viewBox="0 0 8 9" fill="none" xmlns="http://www.w3.org/2000/svg">
<path d="M6.6399 8.99999H1.8516C1.53069 8.99999 1.22292 8.8725 0.996002 8.64559C0.769083 8.41867 0.641602 8.1109 0.641602 7.78999V1.48039C0.641602 1.15947 0.769083 0.851706 0.996002 0.624787C1.22292 0.397868 1.53069 0.270386 1.8516 0.270386H6.6399C6.96081 0.270386 7.26858 0.397868 7.4955 0.624787C7.72242 0.851706 7.8499 1.15947 7.8499 1.48039V7.78999C7.8499 8.1109 7.72242 8.41867 7.4955 8.64559C7.26858 8.8725 6.96081 8.99999 6.6399 8.99999ZM1.8516 0.883086C1.69328 0.883376 1.54152 0.9464 1.42957 1.05835C1.31762 1.1703 1.25459 1.32206 1.2543 1.48039V7.78999C1.25459 7.94831 1.31762 8.10007 1.42957 8.21202C1.54152 8.32397 1.69328 8.387 1.8516 8.38729H6.6399C6.79823 8.387 6.94998 8.32397 7.06193 8.21202C7.17389 8.10007 7.23691 7.94831 7.2372 7.78999V1.48039C7.23691 1.32206 7.17389 1.1703 7.06193 1.05835C6.94998 0.9464 6.79823 0.883376 6.6399 0.883086H1.8516Z" fill="black"/>
</svg>
