<svg width="485" height="512" viewBox="0 0 485 512" fill="none" xmlns="http://www.w3.org/2000/svg">
<path d="M480.927 105.815C480.743 105.41 480.533 105.022 480.299 104.648C479.073 102.492 477.562 100.481 475.774 98.672L386.613 8.466C384.355 6.181 381.721 4.315 378.86 2.918C378.813 2.892 378.765 2.871 378.718 2.846C378.653 2.815 378.589 2.783 378.524 2.753C378.259 2.62 377.988 2.499 377.71 2.39C374.144 0.838 370.269 0 366.343 0H209.511C193.796 0 181.011 12.785 181.011 28.5V105.429H28.5C12.785 105.429 0 118.213 0 133.928V483.5C0 499.215 12.785 512 28.5 512H272.448C288.163 512 300.948 499.215 300.948 483.5V406.571H455.503C471.218 406.571 484.003 393.787 484.003 378.072V118.706C484.003 114.154 482.934 109.763 480.927 105.815V105.815ZM448.907 99.941H392.565C387.878 99.941 384.065 96.128 384.065 91.441V34.34L448.907 99.941ZM201.011 139.769L265.852 205.371H209.511C204.824 205.371 201.011 201.558 201.011 196.871V139.769ZM280.949 483.5C280.949 488.187 277.136 492 272.449 492H28.5C23.813 492 20 488.187 20 483.5V133.928C20 129.241 23.813 125.429 28.5 125.429H181.011V196.87C181.011 212.585 193.796 225.37 209.511 225.37H280.949V260.227H248.907C243.384 260.227 238.907 264.705 238.907 270.227C238.907 275.749 243.384 280.227 248.907 280.227H280.949V483.5ZM455.504 386.571H300.949V280.228H368.928L345.918 303.142C342.004 307.039 341.991 313.371 345.888 317.285C347.842 319.247 350.408 320.228 352.974 320.228C355.526 320.228 358.079 319.257 360.03 317.314L400.03 277.481C401.909 275.61 402.968 273.068 402.974 270.416C402.974 270.384 402.97 270.352 402.969 270.319C402.969 270.288 402.974 270.259 402.974 270.228C402.974 266.949 401.388 264.047 398.95 262.224L360.06 223.172C356.163 219.259 349.831 219.245 345.918 223.143C342.005 227.041 341.991 233.372 345.888 237.286L368.736 260.229H300.949V224.136C300.949 216.586 298.026 209.471 292.719 204.102L203.558 113.896C202.756 113.084 201.902 112.332 201.012 111.628V28.5C201.012 23.813 204.825 20 209.512 20H364.067V91.441C364.067 107.156 376.852 119.941 392.567 119.941H464.005V378.072C464.003 382.759 460.19 386.571 455.504 386.571V386.571Z" fill="black"/>
<path d="M65.25 280H196.897C202.42 280 206.897 275.522 206.897 270C206.897 264.478 202.42 260 196.897 260H65.25C59.727 260 55.25 264.478 55.25 270C55.25 275.522 59.727 280 65.25 280V280Z" fill="black"/>
<path d="M65.25 333H174.973C180.496 333 184.973 328.522 184.973 323C184.973 317.478 180.496 313 174.973 313H65.25C59.727 313 55.25 317.478 55.25 323C55.25 328.522 59.727 333 65.25 333Z" fill="black"/>
<path d="M224.74 333.002C230.266 333.002 234.745 328.523 234.745 322.997C234.745 317.472 230.266 312.992 224.74 312.992C219.215 312.992 214.735 317.472 214.735 322.997C214.735 328.523 219.215 333.002 224.74 333.002Z" fill="black"/>
<path d="M224.973 366.664H65.25C59.727 366.664 55.25 371.142 55.25 376.664C55.25 382.186 59.727 386.664 65.25 386.664H224.973C230.496 386.664 234.973 382.186 234.973 376.664C234.973 371.142 230.496 366.664 224.973 366.664Z" fill="black"/>
<path d="M224.973 420H65.25C59.727 420 55.25 424.478 55.25 430C55.25 435.522 59.727 440 65.25 440H224.973C230.496 440 234.973 435.522 234.973 430C234.973 424.478 230.496 420 224.973 420Z" fill="black"/>
</svg>
