<svg width="12" height="13" viewBox="0 0 12 13" fill="none" xmlns="http://www.w3.org/2000/svg">
<path d="M4.88547 1.49991C4.9982 1.30407 5.16056 1.14139 5.35618 1.02828C5.55181 0.915174 5.77379 0.855618 5.99976 0.855618C6.22573 0.855618 6.4477 0.915174 6.64333 1.02828C6.83895 1.14139 7.00131 1.30407 7.11404 1.49991C7.1719 1.59723 7.26549 1.66809 7.37486 1.6974C7.48422 1.7267 7.6007 1.71212 7.69947 1.65676C7.79776 1.59979 7.8694 1.50612 7.89865 1.39634C7.9279 1.28656 7.91237 1.16966 7.85547 1.07133C7.66739 0.745604 7.39688 0.475119 7.07114 0.287061C6.74539 0.0990038 6.37589 0 5.99976 0C5.62362 0 5.25412 0.0990038 4.92837 0.287061C4.60263 0.475119 4.33212 0.745604 4.14404 1.07133C4.11303 1.12011 4.09221 1.17466 4.08283 1.2317C4.07345 1.28873 4.0757 1.34707 4.08945 1.40321C4.10321 1.45936 4.12817 1.51214 4.16285 1.55838C4.19753 1.60462 4.2412 1.64337 4.29124 1.6723C4.34129 1.70122 4.39666 1.71973 4.45404 1.7267C4.51142 1.73367 4.56962 1.72896 4.62513 1.71285C4.68064 1.69675 4.73232 1.66958 4.77706 1.63299C4.8218 1.59639 4.85868 1.55112 4.88547 1.49991Z" fill="#E70B0B"/>
<path d="M0.428571 2.57141C0.314907 2.57141 0.205898 2.61656 0.125526 2.69694C0.0451529 2.77731 0 2.88632 0 2.99998C0 3.11365 0.0451529 3.22266 0.125526 3.30303C0.205898 3.3834 0.314907 3.42855 0.428571 3.42855H1.30457L1.67743 11.6301C1.69255 11.9608 1.83465 12.273 2.07415 12.5015C2.31365 12.7301 2.63208 12.8575 2.96314 12.8571H9.03814C9.36927 12.8575 9.68777 12.73 9.92728 12.5014C10.1668 12.2727 10.3088 11.9605 10.3239 11.6297L10.6954 3.42855H11.5714C11.6851 3.42855 11.7941 3.3834 11.8745 3.30303C11.9548 3.22266 12 3.11365 12 2.99998C12 2.88632 11.9548 2.77731 11.8745 2.69694C11.7941 2.61656 11.6851 2.57141 11.5714 2.57141H0.428571ZM9.837 3.42855L9.46629 11.5907C9.46132 11.701 9.41398 11.8051 9.33414 11.8814C9.2543 11.9576 9.14811 12.0001 9.03771 12H2.96186C2.85146 12.0001 2.74527 11.9576 2.66543 11.8814C2.58559 11.8051 2.53825 11.701 2.53329 11.5907L2.163 3.42855H9.837Z" fill="#E70B0B"/>
<path d="M5.99986 10.2857C6.11352 10.2857 6.22253 10.2405 6.30291 10.1602C6.38328 10.0798 6.42843 9.97079 6.42843 9.85713V5.99998C6.42843 5.88632 6.38328 5.77731 6.30291 5.69694C6.22253 5.61656 6.11352 5.57141 5.99986 5.57141C5.8862 5.57141 5.77719 5.61656 5.69681 5.69694C5.61644 5.77731 5.57129 5.88632 5.57129 5.99998V9.85713C5.57129 9.97079 5.61644 10.0798 5.69681 10.1602C5.77719 10.2405 5.8862 10.2857 5.99986 10.2857Z" fill="#E70B0B"/>
<path d="M8.14293 10.2857C8.25659 10.2857 8.3656 10.2405 8.44597 10.1602C8.52635 10.0798 8.5715 9.97079 8.5715 9.85713V5.99998C8.5715 5.88632 8.52635 5.77731 8.44597 5.69694C8.3656 5.61656 8.25659 5.57141 8.14293 5.57141C8.02926 5.57141 7.92025 5.61656 7.83988 5.69694C7.75951 5.77731 7.71436 5.88632 7.71436 5.99998V9.85713C7.71436 9.97079 7.75951 10.0798 7.83988 10.1602C7.92025 10.2405 8.02926 10.2857 8.14293 10.2857Z" fill="#E70B0B"/>
<path d="M3.85728 10.2857C3.97095 10.2857 4.07996 10.2405 4.16033 10.1602C4.2407 10.0798 4.28585 9.97079 4.28585 9.85713V5.99998C4.28585 5.88632 4.2407 5.77731 4.16033 5.69694C4.07996 5.61656 3.97095 5.57141 3.85728 5.57141C3.74362 5.57141 3.63461 5.61656 3.55424 5.69694C3.47386 5.77731 3.42871 5.88632 3.42871 5.99998V9.85713C3.42871 9.97079 3.47386 10.0798 3.55424 10.1602C3.63461 10.2405 3.74362 10.2857 3.85728 10.2857Z" fill="#E70B0B"/>
</svg>
