<svg width="18" height="9" viewBox="0 0 18 9" fill="none" xmlns="http://www.w3.org/2000/svg">
<path d="M8.14061 3.84317L8.69027 4.43907L11.5204 1.60895C11.8939 1.2354 11.8939 0.651942 11.5204 0.280166C11.1468 -0.0933886 10.5634 -0.0933886 10.1916 0.280166L7.13379 3.35932C7.5109 3.40379 7.86311 3.56745 8.14061 3.84317Z" fill="#C0C1C3"/>
<path d="M5.66069 6.18588C5.42232 5.91372 5.28891 5.58819 5.248 5.25733L3.77512 6.74088L1.60673 4.38393C1.23317 4.01037 0.649716 4.01037 0.277941 4.38393C-0.0724891 4.73436 -0.0956139 5.29291 0.231691 5.66646L3.05292 8.72072C3.21657 8.90749 3.47272 8.99999 3.72887 8.99999H3.752C4.00815 8.99999 4.24118 8.90749 4.40483 8.72072L6.27438 6.85116L5.66069 6.18588Z" fill="#C0C1C3"/>
<path d="M7.59794 4.38393C7.22438 4.01038 6.64093 4.01038 6.26915 4.38393C5.91872 4.73436 5.8956 5.29291 6.2229 5.66647L9.04413 8.72072C9.20778 8.9075 9.46393 9 9.72008 9H9.74321C9.99936 9 10.2324 8.9075 10.396 8.72072L17.5078 1.60895C17.8814 1.2354 17.8814 0.651942 17.5078 0.280166C17.1343 -0.0933886 16.5508 -0.0933886 16.179 0.280166L9.76634 6.7391L7.59794 4.38393Z" fill="#C0C1C3"/>
</svg>
