<svg width="33" height="52" viewBox="0 0 33 52" fill="none" xmlns="http://www.w3.org/2000/svg">
<circle cx="16.5" cy="16.5" r="16.5" fill="#FFE3B9"/>
<path d="M7.45 42H3.8V49H7.45V48.42H4.5V45.77H7.15V45.19H4.5V42.58H7.45V42ZM16.8093 49H17.4993V45.8C17.4993 44.2 16.5393 43.44 15.3293 43.44C14.4593 43.44 13.6593 43.89 13.3593 44.78C13.0293 43.87 12.2493 43.44 11.3393 43.44C10.5693 43.44 9.8793 43.79 9.5293 44.48V43.54H8.8293V49H9.5293V46.04C9.5293 44.71 10.2193 44.05 11.2193 44.05C12.1893 44.05 12.8293 44.67 12.8293 45.88V49H13.5193V46.04C13.5193 44.71 14.2193 44.05 15.2093 44.05C16.1793 44.05 16.8093 44.67 16.8093 45.88V49ZM24.1939 46.27C24.1939 44.53 23.0039 43.46 21.4639 43.46C19.9339 43.46 18.7339 44.53 18.7339 46.27C18.7339 48 19.9039 49.08 21.4439 49.08C22.9839 49.08 24.1939 48 24.1939 46.27ZM19.4439 46.27C19.4439 44.77 20.4139 44.07 21.4539 44.07C22.4939 44.07 23.4739 44.77 23.4739 46.27C23.4739 47.77 22.4739 48.47 21.4439 48.47C20.4039 48.47 19.4439 47.77 19.4439 46.27ZM25.8699 42.51C26.1499 42.51 26.3699 42.29 26.3699 41.99C26.3699 41.69 26.1499 41.48 25.8699 41.48C25.5899 41.48 25.3599 41.69 25.3599 41.99C25.3599 42.29 25.5899 42.51 25.8699 42.51ZM25.5099 43.54V50.26C25.5099 50.79 25.2999 50.98 24.7799 50.98H24.3999V51.58H24.8899C25.7699 51.58 26.2099 51.17 26.2099 50.29V43.54H25.5099ZM27.8137 49H28.5137V43.54H27.8137V49ZM28.1637 42.51C28.4437 42.51 28.6737 42.29 28.6737 41.99C28.6737 41.69 28.4437 41.48 28.1637 41.48C27.8837 41.48 27.6537 41.69 27.6537 41.99C27.6537 42.29 27.8837 42.51 28.1637 42.51Z" fill="#ABABAB"/>
<path fill-rule="evenodd" clip-rule="evenodd" d="M16.5005 9C12.3648 9 9.00049 12.3644 9.00049 16.5C9.00049 20.6354 12.3648 24 16.5005 24C20.6359 24 24.0005 20.6354 24.0005 16.5C24.0005 12.3644 20.6359 9 16.5005 9ZM16.5005 9.72221C20.2379 9.72221 23.2781 12.7628 23.2781 16.5C23.2781 20.2372 20.2379 23.2778 16.5005 23.2778C12.7633 23.2778 9.72288 20.2372 9.72288 16.5C9.72288 12.7628 12.7633 9.72221 16.5005 9.72221ZM14.2129 13.4043C13.8014 13.3995 13.3913 13.5476 13.0889 13.85C12.9478 13.9911 12.9478 14.22 13.0889 14.3611C13.23 14.5022 13.4585 14.5022 13.5996 14.3611C13.9281 14.033 14.4937 14.0453 14.8361 14.3874C14.9066 14.458 14.9994 14.4932 15.0919 14.4932C15.1841 14.4932 15.2763 14.458 15.3468 14.3874C15.4879 14.2466 15.4879 14.0176 15.3468 13.8768C15.0373 13.5671 14.6244 13.4091 14.2129 13.4043ZM19.1257 13.4043C18.7143 13.3995 18.3046 13.5476 18.0022 13.85C17.8613 13.9911 17.8613 14.22 18.0022 14.3611C18.1433 14.5022 18.3721 14.5022 18.5129 14.3611C18.8414 14.033 19.407 14.0453 19.7494 14.3874C19.8199 14.458 19.9128 14.4932 20.0052 14.4932C20.0977 14.4932 20.1896 14.458 20.2601 14.3874C20.4012 14.2466 20.4012 14.0176 20.2601 13.8768C19.9506 13.5671 19.5372 13.4091 19.1257 13.4043ZM13.538 17.2288C13.3386 17.2288 13.1768 17.3906 13.1768 17.5899C13.1768 19.2233 14.4774 20.5027 16.1374 20.5027H17.4378C19.0979 20.5027 20.3984 19.2445 20.3984 17.6383C20.3984 17.4388 20.2366 17.2772 20.0372 17.2772C19.8376 17.2772 19.676 17.4388 19.676 17.6383C19.676 18.8394 18.6931 19.78 17.4378 19.78H16.1374C14.8821 19.78 13.8992 18.8181 13.8992 17.5899C13.8992 17.3906 13.7374 17.2288 13.538 17.2288Z" fill="#BE3B12"/>
</svg>
