<svg width="33" height="50" viewBox="0 0 33 50" fill="none" xmlns="http://www.w3.org/2000/svg">
<circle cx="16.5" cy="16.5" r="16.5" fill="#E8EEFF"/>
<path fill-rule="evenodd" clip-rule="evenodd" d="M15.9659 22.1687L23.2412 15.9481C23.4821 15.7421 23.5104 15.3793 23.3044 15.1384C23.0984 14.8975 22.7357 14.8692 22.4948 15.0752L15.5117 21.046L15.5082 21.049L15.2196 21.2958C14.6411 21.7904 13.89 22.0347 13.1311 21.9754C12.3723 21.9161 11.6682 21.558 11.1736 20.9796C11.1731 20.979 11.1731 20.979 11.1726 20.9784C10.1422 19.7733 10.2838 17.9608 11.489 16.9303L18.6176 10.8351C19.0034 10.5052 19.5043 10.3418 20.0106 10.3814C20.5169 10.4209 20.9864 10.6602 21.3163 11.046C21.6462 11.4318 21.8096 11.9328 21.77 12.4391C21.7305 12.9453 21.4912 13.4148 21.1054 13.7447C19.3788 15.221 16.8818 17.3561 15.4316 18.596C15.2384 18.7612 14.9883 18.8421 14.7351 18.8229C14.482 18.8026 14.2475 18.6838 14.0823 18.4906C13.7389 18.0891 13.7862 17.4845 14.1877 17.1412L17.0973 14.6534C17.3383 14.4474 17.3666 14.0847 17.1606 13.8438C16.9546 13.6028 16.5919 13.5745 16.351 13.7805L13.4414 16.2683C12.5574 17.0241 12.4536 18.353 13.2094 19.2369C13.5721 19.6612 14.0892 19.9242 14.6456 19.9682C15.2021 20.0112 15.7538 19.8317 16.178 19.4689C17.6281 18.229 20.1252 16.0939 21.8518 14.6176C22.4692 14.0897 22.8515 13.3387 22.9143 12.5285C22.9781 11.7184 22.7171 10.9171 22.1892 10.2996C21.6613 9.68222 20.9103 9.29988 20.1 9.23711C19.2899 9.17326 18.4886 9.4343 17.8712 9.96222C15.9346 11.6181 12.9091 14.205 10.7426 16.0574C9.05503 17.5004 8.85729 20.0378 10.2997 21.7248C10.3002 21.7254 10.3002 21.7254 10.3007 21.726C10.9933 22.536 11.9794 23.0377 13.0416 23.1207C14.1039 23.2037 15.1559 22.8613 15.9659 22.1687Z" fill="#4D7CFE"/>
<path d="M9.51387 49H10.2139V45.78H12.8139V45.2H10.2139V42.59H13.2939V42.01H9.51387V49ZM14.4455 49H15.1455V43.54H14.4455V49ZM14.7955 42.51C15.0755 42.51 15.3055 42.29 15.3055 41.99C15.3055 41.69 15.0755 41.48 14.7955 41.48C14.5155 41.48 14.2855 41.69 14.2855 41.99C14.2855 42.29 14.5155 42.51 14.7955 42.51ZM16.7307 49H17.4307V41.6H16.7307V49ZM21.3458 44.06C22.3558 44.06 23.2758 44.7 23.2458 45.97H19.4058C19.4858 44.7 20.3558 44.06 21.3458 44.06ZM23.8758 47.27H23.1358C22.9358 48 22.3058 48.49 21.3758 48.49C20.3558 48.49 19.4658 47.82 19.4058 46.54H23.9358C23.9558 46.35 23.9558 46.21 23.9558 45.99C23.9558 44.6 22.9758 43.46 21.3758 43.46C19.8058 43.46 18.6958 44.53 18.6958 46.27C18.6958 48 19.8258 49.08 21.3758 49.08C22.7458 49.08 23.6258 48.3 23.8758 47.27Z" fill="#ABABAB"/>
</svg>
