<svg width="10" height="10" viewBox="0 0 10 10" fill="none" xmlns="http://www.w3.org/2000/svg">
<path d="M8.46521 4.27025L9.31893 3.41667H8.11169H5.71072V3.41665L5.70555 3.4167L5.55615 3.41824L5.55615 3.41818L5.5485 3.41838C4.63199 3.44187 3.78075 3.66587 3.04479 4.0783C2.2888 4.50019 1.66496 5.12388 1.2429 5.87975C0.805489 6.65936 0.580406 7.56833 0.580406 8.54698C0.580406 8.55765 0.57617 8.56787 0.568631 8.57541C0.561093 8.58295 0.550867 8.58719 0.540203 8.58719C0.529539 8.58719 0.519314 8.58295 0.511775 8.57541C0.504236 8.56787 0.5 8.55765 0.5 8.54698C0.5 7.54184 0.734552 6.62214 1.17265 5.84077L1.17303 5.84009C1.60163 5.07287 2.2346 4.43957 3.00155 4.01057L3.1201 3.94599C3.87604 3.54855 4.75496 3.33627 5.71072 3.33627H8.11045H9.3177L8.46398 2.48268L6.55709 0.576107L6.54357 0.561269C6.53918 0.554123 6.5371 0.545736 6.53772 0.537279C6.53847 0.526986 6.54315 0.517376 6.55079 0.510439C6.55843 0.503502 6.56844 0.499769 6.57876 0.500011C6.58906 0.500253 6.59886 0.504437 6.60616 0.511697C6.60618 0.511712 6.60619 0.511727 6.60621 0.511743L9.43514 3.34067L9.44914 3.35603C9.45339 3.3629 9.45549 3.37094 9.45509 3.3791C9.45461 3.38908 9.45043 3.39853 9.44336 3.40559L9.44326 3.40569L6.61394 6.23501L6.59755 6.24996C6.59032 6.25455 6.58177 6.25674 6.57314 6.25613C6.56281 6.2554 6.55317 6.25071 6.54621 6.24305C6.53926 6.23538 6.53552 6.22533 6.53579 6.21499C6.53606 6.20464 6.54031 6.19479 6.54766 6.1875L6.54888 6.18628L8.46521 4.27025Z" fill="black" stroke="black"/>
</svg>
