<svg width="33" height="50" viewBox="0 0 33 50" fill="none" xmlns="http://www.w3.org/2000/svg">
<circle cx="16.5" cy="16.5" r="16.5" fill="#DDF5FD"/>
<path d="M11.94 41.93C9.98 41.93 8.48 43.41 8.48 45.5C8.48 47.6 9.98 49.07 11.94 49.07C13.85 49.07 15.23 47.65 15.34 45.8V45.29H11.66V45.86H14.6C14.49 47.45 13.41 48.44 11.94 48.44C10.39 48.44 9.2 47.31 9.2 45.5C9.2 43.69 10.39 42.57 11.94 42.57C13.06 42.57 13.91 43.15 14.3 44.05H15.12C14.62 42.72 13.44 41.93 11.94 41.93ZM16.6223 49H17.3223V42.01H16.6223V49ZM18.9074 49H19.6074V45.78H22.2074V45.2H19.6074V42.59H22.6874V42.01H18.9074V49Z" fill="#ABABAB"/>
<path d="M16.4999 8C11.8055 8 8 11.8056 8 16.5001C8 21.1945 11.8055 25 16.4999 25C21.1943 25 25 21.1945 25 16.5001C25 11.8056 21.1943 8 16.4999 8ZM15.0017 18.9904C15.0017 19.6131 14.7658 20.1502 14.2943 20.6016C13.8227 21.053 13.2619 21.2787 12.612 21.2787C11.9395 21.2787 11.3665 21.0508 10.8925 20.5949C10.4184 20.1391 10.1818 19.5861 10.1818 18.9363C10.1818 18.291 10.4184 17.7379 10.8925 17.2778C11.3665 16.8171 11.9326 16.587 12.5917 16.587C13.0699 16.587 13.5179 16.7223 13.9356 16.9933C14.353 17.2641 14.6315 17.6004 14.7717 18.0019H13.7764C13.4966 17.5779 13.0948 17.3653 12.5715 17.3653C12.1382 17.3653 11.7713 17.5178 11.4713 17.8225C11.171 18.1271 11.0209 18.5008 11.0209 18.943C11.0209 19.3853 11.1734 19.7554 11.478 20.0532C11.7826 20.3512 12.1608 20.5002 12.6121 20.5002C12.9008 20.5002 13.164 20.4271 13.4006 20.2803C13.6378 20.1334 13.8194 19.9317 13.9458 19.6742H12.0569V18.8959H15.0018V18.9904H15.0017ZM16.4571 21.1906H15.6178V16.6751H16.4571V21.1906ZM19.5847 17.4535H18.1224V18.5638H19.5172V19.3424H18.1224V21.1906H17.283V16.6751H19.5846V17.4535H19.5847ZM16.7087 9.13361C20.6834 9.24443 23.8717 12.4989 23.8717 16.5001C23.8717 16.5182 23.8705 16.5362 23.87 16.5544C20.1025 15.9851 17.1477 12.9426 16.7087 9.13361Z" fill="#21BDED"/>
</svg>
