<svg width="39" height="40" viewBox="0 0 39 40" fill="none" xmlns="http://www.w3.org/2000/svg">
<path d="M19.5 39.0054C8.73313 39.0054 0 30.2723 0 19.5C0 8.73313 8.73313 0 19.5 0C30.2723 0 39 8.73313 39 19.5C39.0054 30.2723 30.2723 39.0054 19.5 39.0054Z" fill="#DF4B38"/>
<path d="M21.9414 18.9944H14.062L14.0728 21.2511H19.3856C18.7548 23.9972 16.8189 25.6829 14.2142 25.6829C10.7993 25.6829 8.03144 22.9151 8.03144 19.5001C8.03144 16.0852 10.7993 13.3228 14.2142 13.3228C15.8401 13.3228 17.3138 13.9481 18.4177 14.9704L20.1632 13.4696C18.6352 11.9633 16.5362 11.0334 14.2197 11.0334C9.53771 11.0334 5.74756 14.829 5.74756 19.5056C5.74756 24.1875 9.54315 27.9777 14.2197 27.9777C18.7113 27.9777 21.9577 24.5518 21.9577 19.8699L21.9414 18.9944Z" fill="white"/>
<path d="M33.263 19.0868H30.0112V15.835H27.9339V19.0868H24.6821V21.164H27.9339V24.4158H30.0112V21.164H33.263V19.0868Z" fill="white"/>
</svg>
