<svg width="34" height="52" viewBox="0 0 34 52" fill="none" xmlns="http://www.w3.org/2000/svg">
<circle cx="16.5" cy="16.5" r="16.5" fill="#F9E2FF"/>
<path d="M21.8021 9H12.1978C11.6149 9 11.0559 9.23119 10.6437 9.64271C10.2316 10.0542 10 10.6124 10 11.1944V20.8056C10 21.3876 10.2316 21.9458 10.6437 22.3573C11.0559 22.7688 11.6149 23 12.1978 23H21.8021C22.385 23 22.944 22.7688 23.3562 22.3573C23.7683 21.9458 23.9999 21.3876 23.9999 20.8056V11.2163C24.0028 10.9263 23.9481 10.6386 23.8389 10.3698C23.7298 10.101 23.5684 9.85655 23.364 9.65045C23.1596 9.44436 22.9164 9.28076 22.6483 9.16911C22.3802 9.05746 22.0926 8.99999 21.8021 9ZM12.8681 11.5235C13.0955 11.5235 13.3177 11.5909 13.5067 11.7171C13.6956 11.8434 13.8428 12.0227 13.9296 12.2326C14.0163 12.4424 14.0387 12.6732 13.994 12.8958C13.9492 13.1183 13.8393 13.3226 13.6781 13.4827C13.517 13.6429 13.3119 13.7516 13.0888 13.7952C12.8656 13.8389 12.6346 13.8154 12.4248 13.7278C12.2151 13.6401 12.0361 13.4923 11.9106 13.3031C11.7851 13.1138 11.7187 12.8916 11.7198 12.6646C11.7212 12.3614 11.8428 12.0712 12.058 11.8574C12.2732 11.6436 12.5645 11.5235 12.8681 11.5235ZM22.8955 20.3009C22.8955 20.7665 22.7103 21.213 22.3805 21.5423C22.0508 21.8715 21.6036 22.0564 21.1373 22.0564H12.8626C12.3963 22.0564 11.9491 21.8715 11.6194 21.5423C11.2896 21.213 11.1044 20.7665 11.1044 20.3009V19.1379C11.1141 18.6615 11.3115 18.2082 11.6538 17.8762L13.3956 16.1317C13.7322 15.7977 14.1875 15.6102 14.6621 15.6102C15.1366 15.6102 15.5919 15.7977 15.9285 16.1317L16.478 16.6803C16.8146 17.0142 17.2699 17.2017 17.7444 17.2017C18.219 17.2017 18.6743 17.0142 19.0109 16.6803L19.8516 15.8354C20.1033 15.5895 20.422 15.4232 20.7678 15.3571C21.1137 15.2911 21.4714 15.3283 21.7962 15.4641C22.121 15.5999 22.3985 15.8283 22.594 16.1207C22.7896 16.4131 22.8944 16.7566 22.8955 17.1082V20.3009Z" fill="#D840FE"/>
<path d="M1.79951 48H2.49951V41.01H1.79951V48ZM12.0647 48H12.7547V44.8C12.7547 43.2 11.7947 42.44 10.5847 42.44C9.71467 42.44 8.91467 42.89 8.61467 43.78C8.28467 42.87 7.50467 42.44 6.59467 42.44C5.82467 42.44 5.13467 42.79 4.78467 43.48V42.54H4.08467V48H4.78467V45.04C4.78467 43.71 5.47467 43.05 6.47467 43.05C7.44467 43.05 8.08467 43.67 8.08467 44.88V48H8.77467V45.04C8.77467 43.71 9.47467 43.05 10.4647 43.05C11.4347 43.05 12.0647 43.67 12.0647 44.88V48ZM13.9893 45.26C13.9893 46.97 15.0993 48.08 16.5893 48.08C17.6793 48.08 18.4393 47.49 18.7593 46.79V48H19.4593V42.54H18.7593V43.74C18.4493 43.05 17.6993 42.46 16.5993 42.46C15.0993 42.46 13.9893 43.55 13.9893 45.26ZM18.7593 45.27C18.7593 46.63 17.8493 47.47 16.7293 47.47C15.5793 47.47 14.6993 46.64 14.6993 45.26C14.6993 43.87 15.5793 43.07 16.7293 43.07C17.8493 43.07 18.7593 43.91 18.7593 45.27ZM20.7373 45.26C20.7373 46.97 21.8473 48.08 23.3473 48.08C24.4273 48.08 25.1873 47.49 25.5073 46.79V48.14C25.5073 49.38 24.6973 50.07 23.6573 50.07C22.6573 50.07 21.9673 49.56 21.7373 48.82H21.0473C21.2673 49.96 22.2473 50.68 23.6573 50.68C25.1573 50.68 26.2073 49.67 26.2073 48.14V42.54H25.5073V43.73C25.1973 43.04 24.4273 42.46 23.3473 42.46C21.8473 42.46 20.7373 43.55 20.7373 45.26ZM25.5073 45.27C25.5073 46.63 24.5973 47.47 23.4773 47.47C22.3273 47.47 21.4473 46.64 21.4473 45.26C21.4473 43.87 22.3273 43.07 23.4773 43.07C24.5973 43.07 25.5073 43.91 25.5073 45.27ZM30.1354 43.06C31.1454 43.06 32.0654 43.7 32.0354 44.97H28.1954C28.2754 43.7 29.1454 43.06 30.1354 43.06ZM32.6654 46.27H31.9254C31.7254 47 31.0954 47.49 30.1654 47.49C29.1454 47.49 28.2554 46.82 28.1954 45.54H32.7254C32.7454 45.35 32.7454 45.21 32.7454 44.99C32.7454 43.6 31.7654 42.46 30.1654 42.46C28.5954 42.46 27.4854 43.53 27.4854 45.27C27.4854 47 28.6154 48.08 30.1654 48.08C31.5354 48.08 32.4154 47.3 32.6654 46.27Z" fill="#ABABAB"/>
</svg>
