<svg width="43" height="50" viewBox="0 0 43 50" fill="none" xmlns="http://www.w3.org/2000/svg">
<circle cx="21.3569" cy="16.5" r="16.5" fill="#EDEDED"/>
<path d="M19.6898 23.6832L19.6899 23.6831L19.6843 23.6789C18.6794 22.9084 17.3491 21.7484 16.2733 20.3389C15.1949 18.9259 14.4 17.2988 14.4 15.5855C14.4 12.1501 17.3328 9.32041 20.9598 9.32041C24.5869 9.32041 27.5197 12.1501 27.5197 15.5855C27.5197 17.2988 26.7248 18.9259 25.6464 20.3389C24.5706 21.7484 23.2403 22.9084 22.2354 23.6789L22.2354 23.6788L22.2299 23.6832C21.4914 24.2701 20.4282 24.2701 19.6898 23.6832Z" fill="#FFDBDB" stroke="#C31C1C" stroke-width="0.8"/>
<path d="M20.9604 17.233C19.7907 17.233 18.8594 16.3016 18.8594 15.132C18.8594 13.9624 19.7907 13.031 20.9604 13.031C22.13 13.031 23.0614 13.9624 23.0614 15.132C23.0614 16.3016 22.13 17.233 20.9604 17.233Z" stroke="#C31C1C" stroke-width="0.7"/>
<path d="M0.8 42.01V49H4.01V48.43H1.5V42.01H0.8ZM10.149 46.27C10.149 44.53 8.95898 43.46 7.41898 43.46C5.88898 43.46 4.68898 44.53 4.68898 46.27C4.68898 48 5.85898 49.08 7.39898 49.08C8.93898 49.08 10.149 48 10.149 46.27ZM5.39898 46.27C5.39898 44.77 6.36898 44.07 7.40898 44.07C8.44898 44.07 9.42898 44.77 9.42898 46.27C9.42898 47.77 8.42898 48.47 7.39898 48.47C6.35898 48.47 5.39898 47.77 5.39898 46.27ZM11.105 46.27C11.105 48 12.215 49.08 13.755 49.08C15.125 49.08 16.015 48.31 16.265 47.22H15.515C15.325 48.02 14.675 48.49 13.755 48.49C12.685 48.49 11.815 47.75 11.815 46.27C11.815 44.79 12.685 44.06 13.755 44.06C14.675 44.06 15.335 44.54 15.515 45.32H16.265C16.015 44.19 15.125 43.46 13.755 43.46C12.215 43.46 11.105 44.54 11.105 46.27ZM17.2378 46.26C17.2378 47.97 18.3478 49.08 19.8378 49.08C20.9278 49.08 21.6878 48.49 22.0078 47.79V49H22.7078V43.54H22.0078V44.74C21.6978 44.05 20.9478 43.46 19.8478 43.46C18.3478 43.46 17.2378 44.55 17.2378 46.26ZM22.0078 46.27C22.0078 47.63 21.0978 48.47 19.9778 48.47C18.8278 48.47 17.9478 47.64 17.9478 46.26C17.9478 44.87 18.8278 44.07 19.9778 44.07C21.0978 44.07 22.0078 44.91 22.0078 46.27ZM24.5059 47.52C24.5059 48.61 25.0159 49 25.9659 49H26.7159V48.4H26.0759C25.4459 48.4 25.2159 48.19 25.2159 47.52V44.13H26.7159V43.54H25.2159V42.17H24.5059V43.54H23.7459V44.13H24.5059V47.52ZM27.8703 49H28.5703V43.54H27.8703V49ZM28.2203 42.51C28.5003 42.51 28.7303 42.29 28.7303 41.99C28.7303 41.69 28.5003 41.48 28.2203 41.48C27.9403 41.48 27.7103 41.69 27.7103 41.99C27.7103 42.29 27.9403 42.51 28.2203 42.51ZM35.2955 46.27C35.2955 44.53 34.1055 43.46 32.5655 43.46C31.0355 43.46 29.8355 44.53 29.8355 46.27C29.8355 48 31.0055 49.08 32.5455 49.08C34.0855 49.08 35.2955 48 35.2955 46.27ZM30.5455 46.27C30.5455 44.77 31.5155 44.07 32.5555 44.07C33.5955 44.07 34.5755 44.77 34.5755 46.27C34.5755 47.77 33.5755 48.47 32.5455 48.47C31.5055 48.47 30.5455 47.77 30.5455 46.27ZM40.6615 49H41.3515V45.8C41.3515 44.2 40.3715 43.44 39.1315 43.44C38.3215 43.44 37.6215 43.79 37.2715 44.47V43.54H36.5715V49H37.2715V46.02C37.2715 44.69 37.9815 44.05 39.0015 44.05C40.0015 44.05 40.6615 44.67 40.6615 45.88V49Z" fill="#ABABAB"/>
</svg>
