<svg width="20" height="25" viewBox="0 0 20 25" fill="none" xmlns="http://www.w3.org/2000/svg">
<path d="M5.57541 3.36395C5.57635 2.47206 5.93107 1.61698 6.56173 0.986324C7.19239 0.355668 8.04747 0.00094842 8.93935 0H9.05878C9.95066 0.00094842 10.8057 0.355668 11.4364 0.986324C12.0671 1.61698 12.4218 2.47206 12.4227 3.36395V12.2018L5.57541 5.35445V3.36395ZM9.05878 17.8269H8.93935C8.04747 17.826 7.19239 17.4713 6.56173 16.8406C5.93107 16.2099 5.57635 15.3549 5.57541 14.463V8.66425L12.291 15.3798C12.0902 16.0829 11.6664 16.7017 11.0835 17.143C10.5005 17.5844 9.78995 17.8244 9.05878 17.8269ZM9.72839 21.2808L9.37328 21.3206V23.9338H12.8208C12.9201 23.9338 13.0153 23.9732 13.0854 24.0434C13.1556 24.1136 13.195 24.2087 13.195 24.308C13.195 24.4072 13.1556 24.5024 13.0854 24.5726C13.0153 24.6428 12.9201 24.6822 12.8208 24.6822H5.17731C5.07806 24.6822 4.98288 24.6428 4.9127 24.5726C4.84252 24.5024 4.80309 24.4072 4.80309 24.308C4.80309 24.2087 4.84252 24.1136 4.9127 24.0434C4.98288 23.9732 5.07806 23.9338 5.17731 23.9338H8.62485V21.3195L8.26975 21.2796C6.63562 21.1029 5.12461 20.328 4.02748 19.1041C2.93036 17.8802 2.32465 16.2937 2.32691 14.6501V10.271C2.32691 10.1717 2.36634 10.0766 2.43651 10.0064C2.50669 9.93619 2.60188 9.89677 2.70112 9.89677C2.80037 9.89677 2.89555 9.93619 2.96573 10.0064C3.03591 10.0766 3.07534 10.1717 3.07534 10.271V14.6501C3.07433 15.9791 3.52056 17.2698 4.3422 18.3143C5.16383 19.3589 6.31307 20.0967 7.6049 20.4088C8.89674 20.7209 10.256 20.5892 11.4639 20.0349C12.6718 19.4807 13.6581 18.5361 14.2639 17.3532L14.8169 17.9061C14.3008 18.8349 13.5693 19.6262 12.6838 20.2135C11.7983 20.8007 10.7848 21.1668 9.72839 21.2808V21.2808ZM19.7183 20.7784C19.7185 20.8277 19.7088 20.8765 19.69 20.922C19.6711 20.9675 19.6434 21.0089 19.6084 21.0436C19.5372 21.1114 19.4426 21.1492 19.3443 21.1492C19.2459 21.1492 19.1514 21.1114 19.0802 21.0436L0.109493 2.07211C0.0747793 2.0374 0.0472431 1.99619 0.0284563 1.95083C0.00966953 1.90548 0 1.85686 0 1.80777C0 1.70863 0.0393858 1.61354 0.109493 1.54343C0.1796 1.47333 0.274685 1.43394 0.373831 1.43394C0.472977 1.43394 0.568063 1.47333 0.63817 1.54343L4.89187 5.79753L4.90182 5.80748L19.6084 20.5141C19.6434 20.5487 19.6711 20.5898 19.6899 20.6352C19.7088 20.6806 19.7184 20.7293 19.7183 20.7784V20.7784ZM14.9228 14.6501V10.271C14.9228 10.2221 14.9324 10.1737 14.9511 10.1285C14.9698 10.0834 14.9973 10.0423 15.0318 10.0078C15.0664 9.97322 15.1074 9.9458 15.1526 9.92709C15.1977 9.90839 15.2461 9.89876 15.295 9.89876C15.3439 9.89876 15.3923 9.90839 15.4375 9.92709C15.4826 9.9458 15.5237 9.97322 15.5582 10.0078C15.5928 10.0423 15.6202 10.0834 15.6389 10.1285C15.6576 10.1737 15.6672 10.2221 15.6672 10.271V14.6501C15.6674 14.9028 15.6533 15.1553 15.625 15.4065L14.9216 14.703C14.922 14.6839 14.9228 14.6676 14.9228 14.6501Z" fill="white"/>
</svg>
