<svg width="31" height="31" viewBox="0 0 31 31" fill="none" xmlns="http://www.w3.org/2000/svg">
<circle cx="15.0244" cy="15.0244" r="15.0244" fill="#FFB0DC"/>
<path d="M14.7527 7C13.0949 7 11.7603 8.34112 11.7603 10.007V14.2522C11.7603 15.918 13.0949 17.2592 14.7527 17.2592C16.4105 17.2592 17.7451 15.918 17.7451 14.2522V10.007C17.7451 8.34112 16.4105 7 14.7527 7ZM10.3136 11.5934C10.2261 11.6031 10.1454 11.6453 10.0874 11.7118C10.0293 11.7783 9.99819 11.8643 10.0001 11.9527V14.313C10.0001 16.8027 11.9418 18.8373 14.4007 19.0169V21.5043H12.1124C12.1014 21.5038 12.0904 21.5038 12.0794 21.5043C12.0331 21.5065 11.9878 21.5178 11.9459 21.5376C11.904 21.5574 11.8664 21.5853 11.8352 21.6196C11.804 21.654 11.7799 21.6943 11.7642 21.738C11.7485 21.7818 11.7416 21.8282 11.7437 21.8747C11.7459 21.9211 11.7572 21.9667 11.7769 22.0088C11.7966 22.0509 11.8243 22.0887 11.8586 22.12C11.8928 22.1513 11.9328 22.1755 11.9764 22.1913C12.0199 22.2071 12.0661 22.214 12.1124 22.2119H17.3931C17.4397 22.2125 17.486 22.2039 17.5293 22.1864C17.5726 22.1689 17.612 22.1429 17.6452 22.11C17.6785 22.0771 17.7048 22.0379 17.7228 21.9946C17.7409 21.9514 17.7501 21.905 17.7501 21.8581C17.7501 21.8112 17.7409 21.7648 17.7228 21.7215C17.7048 21.6783 17.6785 21.6391 17.6452 21.6062C17.612 21.5732 17.5726 21.5473 17.5293 21.5298C17.486 21.5123 17.4397 21.5037 17.3931 21.5043H15.1048V19.0169C17.5636 18.8373 19.5053 16.8027 19.5053 14.313V11.9527C19.506 11.9058 19.4974 11.8593 19.48 11.8158C19.4626 11.7723 19.4368 11.7327 19.404 11.6993C19.3713 11.6659 19.3322 11.6394 19.2892 11.6213C19.2461 11.6032 19.2 11.5939 19.1533 11.5939C19.1066 11.5939 19.0605 11.6032 19.0174 11.6213C18.9744 11.6394 18.9353 11.6659 18.9026 11.6993C18.8698 11.7327 18.844 11.7723 18.8266 11.8158C18.8092 11.8593 18.8006 11.9058 18.8013 11.9527V14.313C18.8013 16.5361 17.0042 18.3205 14.7527 18.3205C12.5012 18.3205 10.7042 16.5361 10.7042 14.313V11.9527C10.7053 11.9023 10.6956 11.8523 10.6759 11.806C10.6562 11.7597 10.6269 11.7181 10.5899 11.6841C10.5529 11.6501 10.5092 11.6244 10.4615 11.6088C10.4139 11.5931 10.3634 11.5879 10.3136 11.5934Z" fill="white"/>
</svg>
