<svg width="27" height="39" viewBox="0 0 27 39" fill="none" xmlns="http://www.w3.org/2000/svg">
<circle cx="13.5" cy="13.5" r="13.5" fill="#232323"/>
<path d="M14.691 13.5321C14.691 13.0959 14.3373 12.7423 13.9011 12.7423C13.4649 12.7423 13.1113 13.0959 13.1113 13.5321C13.1113 13.9683 13.4649 14.3219 13.9011 14.3219C14.3373 14.3219 14.691 13.9683 14.691 13.5321Z" fill="white" stroke="white" stroke-width="2" stroke-linecap="round" stroke-linejoin="round"/>
<path d="M9.16165 13.5321C9.16165 13.0959 8.80804 12.7423 8.37184 12.7423C7.93564 12.7423 7.58203 13.0959 7.58203 13.5321C7.58203 13.9683 7.93564 14.3219 8.37184 14.3219C8.80804 14.3219 9.16165 13.9683 9.16165 13.5321Z" fill="white" stroke="white" stroke-width="2" stroke-linecap="round" stroke-linejoin="round"/>
<path d="M20.2193 13.5321C20.2193 13.0959 19.8657 12.7423 19.4295 12.7423C18.9933 12.7423 18.6396 13.0959 18.6396 13.5321C18.6396 13.9683 18.9933 14.3219 19.4295 14.3219C19.8657 14.3219 20.2193 13.9683 20.2193 13.5321Z" fill="white" stroke="white" stroke-width="2" stroke-linecap="round" stroke-linejoin="round"/>
<path d="M2.72 38H3.35V33.059L5.564 38H6.023L8.237 33.041V38H8.867V31.79H8.192L5.789 37.172L3.386 31.79H2.72V38ZM14.9222 35.543C14.9222 33.977 13.8512 33.014 12.4652 33.014C11.0882 33.014 10.0082 33.977 10.0082 35.543C10.0082 37.1 11.0612 38.072 12.4472 38.072C13.8332 38.072 14.9222 37.1 14.9222 35.543ZM10.6472 35.543C10.6472 34.193 11.5202 33.563 12.4562 33.563C13.3922 33.563 14.2742 34.193 14.2742 35.543C14.2742 36.893 13.3742 37.523 12.4472 37.523C11.5112 37.523 10.6472 36.893 10.6472 35.543ZM16.7006 35.255C16.7006 34.022 17.3936 33.653 18.2126 33.653H18.3836V32.996C17.5376 32.996 16.9706 33.356 16.7006 33.959V33.086H16.0706V38H16.7006V35.255ZM21.4283 33.554C22.3373 33.554 23.1653 34.13 23.1383 35.273H19.6823C19.7543 34.13 20.5373 33.554 21.4283 33.554ZM23.7053 36.443H23.0393C22.8593 37.1 22.2923 37.541 21.4553 37.541C20.5373 37.541 19.7363 36.938 19.6823 35.786H23.7593C23.7773 35.615 23.7773 35.489 23.7773 35.291C23.7773 34.04 22.8953 33.014 21.4553 33.014C20.0423 33.014 19.0433 33.977 19.0433 35.543C19.0433 37.1 20.0603 38.072 21.4553 38.072C22.6883 38.072 23.4803 37.37 23.7053 36.443Z" fill="#C0C1C3"/>
</svg>
