<svg width="21" height="21" viewBox="0 0 21 21" fill="none" xmlns="http://www.w3.org/2000/svg">
<path d="M20.6109 18.9575C19.6094 17.665 19.1011 16.4825 19.2058 16.265C20.591 14.1525 21.1689 11.6025 20.8301 9.09C20.4539 6.31 19.0239 3.845 16.8016 2.1475C14.9605 0.7425 12.7781 0 10.486 0C10.0127 0 9.53182 0.0325 9.05847 0.0974999C6.28808 0.4725 3.8316 1.91 2.13997 4.14C0.445847 6.37 -0.279137 9.13 0.0970577 11.91C0.794637 17.0925 5.24918 21 10.4561 21C10.9245 21 11.4003 20.9675 11.8687 20.905C13.0571 20.7425 14.1931 20.385 15.2495 19.8425C15.2968 19.8175 15.6332 19.6925 17.4618 19.6925C18.2939 19.6925 19.3154 19.72 20.1948 19.765L20.7379 19.7925C20.7429 19.7925 20.7454 19.7925 20.7504 19.7925C20.8426 19.7925 20.9273 19.74 20.9721 19.6575C21.017 19.57 21.007 19.465 20.9472 19.3875L20.6109 18.9575Z" fill="#232323"/>
<path d="M5.3213 8.95996C4.47424 8.95996 3.78662 9.64996 3.78662 10.5C3.78662 11.35 4.47424 12.04 5.3213 12.04C6.16836 12.04 6.85597 11.35 6.85597 10.5C6.85597 9.64996 6.16587 8.95996 5.3213 8.95996Z" fill="white"/>
<path d="M10.4609 8.95996C9.61388 8.95996 8.92627 9.64996 8.92627 10.5C8.92627 11.35 9.61388 12.04 10.4609 12.04C11.308 12.04 11.9956 11.35 11.9956 10.5C11.9956 9.64996 11.308 8.95996 10.4609 8.95996Z" fill="white"/>
<path d="M15.603 8.95996C14.756 8.95996 14.0684 9.64996 14.0684 10.5C14.0684 11.35 14.756 12.04 15.603 12.04C16.4501 12.04 17.1377 11.35 17.1377 10.5C17.1377 9.64996 16.4501 8.95996 15.603 8.95996Z" fill="white"/>
</svg>
