<svg width="21" height="21" viewBox="0 0 21 21" fill="none" xmlns="http://www.w3.org/2000/svg">
<path d="M18.7876 15.9908L18.7695 16.0185L18.7552 16.0482C18.6798 16.2049 18.6895 16.3635 18.6977 16.4423C18.708 16.5402 18.7321 16.6419 18.7615 16.7396C18.8208 16.9369 18.9183 17.1725 19.0452 17.4295C19.3004 17.9463 19.6961 18.5933 20.2156 19.2638L20.217 19.2655C19.3305 19.2202 18.3021 19.1925 17.4618 19.1925C16.5384 19.1925 15.9774 19.2239 15.634 19.261C15.3139 19.2956 15.1345 19.3388 15.0195 19.3985C14.0146 19.9144 12.9337 20.2546 11.8019 20.4095C11.3549 20.4691 10.9014 20.5 10.4561 20.5C5.50104 20.5 1.25697 16.7792 0.592589 11.8433L0.592542 11.8429C0.234049 9.19376 0.924315 6.56673 2.53811 4.44246L2.53832 4.44218C4.14996 2.31764 6.48744 0.950074 9.12553 0.592982L9.12648 0.592852C9.57716 0.530967 10.0353 0.5 10.486 0.5C12.6671 0.5 14.7432 1.20567 16.4983 2.54498C18.6148 4.16181 19.9761 6.50776 20.3346 9.15705C20.6574 11.5505 20.1066 13.9793 18.7876 15.9908Z" stroke="#C0C1C3"/>
<circle cx="5.5" cy="10.5" r="1.5" fill="#C4C4C4"/>
<circle cx="10.5" cy="10.5" r="1.5" fill="#C4C4C4"/>
<circle cx="15.5" cy="10.5" r="1.5" fill="#C4C4C4"/>
</svg>
