<svg width="301" height="494" viewBox="0 0 301 494" fill="none" xmlns="http://www.w3.org/2000/svg">
<g clip-path="url(#clip0_40_75)">
<path d="M53.6901 3.72578e-06C46.6369 -0.00262377 39.6523 1.3845 33.1354 4.08213C26.6184 6.77975 20.6969 10.735 15.7091 15.7219C10.7212 20.7088 6.76489 26.6296 4.06605 33.146C1.36721 39.6625 -0.0212161 46.6468 -0.019902 53.7V440C-0.116974 447.113 1.20017 454.174 3.85504 460.774C6.50991 467.374 10.4496 473.38 15.4453 478.444C20.4409 483.509 26.393 487.53 32.9559 490.275C39.5187 493.019 46.5615 494.433 53.6751 494.433C60.7888 494.433 67.8315 493.019 74.3943 490.275C80.9572 487.53 86.9093 483.509 91.9049 478.444C96.9006 473.38 100.84 467.374 103.495 460.774C106.15 454.174 107.467 447.113 107.37 440V53.7C107.373 46.649 105.986 39.6665 103.29 33.1514C100.593 26.6364 96.6396 20.7163 91.6547 15.7296C86.6697 10.7428 80.7512 6.78699 74.2372 4.08806C67.7231 1.38914 60.7411 3.23639e-06 53.6901 3.72578e-06V3.72578e-06Z" fill="black"/>
<path d="M246.98 0C232.738 0 219.079 5.65766 209.008 15.7284C198.938 25.7991 193.28 39.4579 193.28 53.7V440C193.183 447.113 194.5 454.174 197.155 460.774C199.81 467.374 203.749 473.38 208.745 478.444C213.741 483.509 219.693 487.53 226.256 490.275C232.819 493.019 239.861 494.433 246.975 494.433C254.089 494.433 261.131 493.019 267.694 490.275C274.257 487.53 280.209 483.509 285.205 478.444C290.2 473.38 294.14 467.374 296.795 460.774C299.45 454.174 300.767 447.113 300.67 440V53.7C300.671 46.6485 299.283 39.6658 296.586 33.1507C293.888 26.6355 289.934 20.7156 284.948 15.729C279.962 10.7423 274.043 6.78666 267.528 4.08786C261.014 1.38906 254.031 -1.22311e-07 246.98 0V0Z" fill="black"/>
</g>
<defs>
<clipPath id="clip0_40_75">
<rect width="300.69" height="493.73" fill="white"/>
</clipPath>
</defs>
</svg>
