<svg width="13" height="14" viewBox="0 0 13 14" fill="none" xmlns="http://www.w3.org/2000/svg">
<path d="M0.925084 9.23503L0.474695 12.952C0.466906 13.0169 0.472295 13.0829 0.490495 13.1454C0.508694 13.208 0.539274 13.2656 0.580143 13.3144C0.621012 13.3631 0.671207 13.4018 0.727295 13.4279C0.783383 13.454 0.844042 13.4668 0.905124 13.4654L0.95816 13.4648L4.47426 12.9547C4.56802 12.9412 4.65484 12.8946 4.72094 12.8221L11.5952 5.26754C11.8376 5.0112 12.0298 4.70557 12.1606 4.36852C12.2914 4.03146 12.3582 3.66973 12.3571 3.30446C12.356 2.93919 12.287 2.57771 12.1541 2.24111C12.0212 1.90452 11.8271 1.59957 11.5832 1.34407C11.3393 1.08858 11.0503 0.887663 10.7333 0.753061C10.4163 0.618459 10.0776 0.55287 9.73687 0.560124C9.39617 0.567379 9.06034 0.647332 8.749 0.795313C8.43766 0.943294 8.15706 1.15634 7.92358 1.422L1.04297 8.97664C0.978593 9.04678 0.937226 9.13745 0.925084 9.23503ZM1.7494 9.50501L8.53157 2.05842C8.85084 1.71708 9.2829 1.52448 9.7342 1.52232C10.1855 1.52016 10.6197 1.70861 10.9429 2.04687C11.266 2.38513 11.4521 2.84598 11.4608 3.32964C11.4695 3.81331 11.3001 4.28087 10.9893 4.63109L4.20921 12.0731L1.38786 12.4818L1.7494 9.50501Z" fill="white"/>
</svg>
