<svg width="56" height="56" viewBox="0 0 56 56" fill="none" xmlns="http://www.w3.org/2000/svg">
<circle cx="28" cy="28" r="28" fill="#E70B0B"/>
<path d="M15.4663 32.1074L19.5011 32.0898C19.6757 32.0897 19.8483 32.0551 20.0088 31.9878C20.1694 31.9205 20.3147 31.822 20.4364 31.6978C20.558 31.5737 20.6536 31.4265 20.7177 31.2647C20.7817 31.1029 20.8128 30.9298 20.8093 30.7553L20.7459 25.9937C22.9836 24.4801 25.6326 23.6817 28.3451 23.7033C30.9599 23.693 33.1246 24.3596 35.8639 25.8484L35.9303 30.8576C35.9318 31.0321 35.9679 31.2048 36.0365 31.3658C36.1051 31.5267 36.205 31.6728 36.3302 31.7954C36.4554 31.918 36.6035 32.0147 36.7659 32.08C36.9284 32.1453 37.1019 32.1779 37.2765 32.1758L41.4392 32.1486C41.6138 32.1486 41.7863 32.114 41.9469 32.0467C42.1074 31.9794 42.2527 31.8809 42.3744 31.7567C42.4961 31.6326 42.5917 31.4854 42.6557 31.3236C42.7197 31.1618 42.7508 30.9887 42.7473 30.8142L42.6637 25.2572C42.651 24.342 33.8667 19.6016 28.2603 19.606C20.1254 19.666 14.0465 24.5152 14.0601 25.448L14.1336 30.7931C14.1376 31.1425 14.2802 31.4772 14.5301 31.7236C14.7799 31.97 15.1167 32.1081 15.4663 32.1074Z" fill="white"/>
</svg>
