<svg width="5" height="5" viewBox="0 0 5 5" fill="none" xmlns="http://www.w3.org/2000/svg">
<path d="M2.5 0C1.11585 0 0 1.11585 0 2.5C0 3.88415 1.11585 5 2.5 5C3.88415 5 5 3.88415 5 2.5C5 1.11585 3.88415 0 2.5 0ZM3.60976 2.61585L1.94512 3.59146C1.92683 3.60366 1.89634 3.60976 1.87805 3.60976C1.85976 3.60976 1.82927 3.60366 1.81098 3.59146C1.76829 3.56098 1.7439 3.52439 1.7439 3.47561V1.53049H1.7378C1.7378 1.48171 1.76829 1.43293 1.80488 1.41463C1.84146 1.39634 1.90244 1.38415 1.94512 1.41463L3.60976 2.38415C3.65244 2.41463 3.67683 2.45122 3.67683 2.5C3.67683 2.54878 3.64634 2.59756 3.60976 2.61585Z" fill="black"/>
</svg>
