<svg width="501" height="354" viewBox="0 0 501 354" fill="none" xmlns="http://www.w3.org/2000/svg">
<g clip-path="url(#clip0_40_84)">
<path d="M93.46 230.84C82.46 258.52 65.16 285.91 41.95 312.27C38.3571 316.299 36.1838 321.395 35.763 326.777C35.3422 332.159 36.697 337.531 39.62 342.07C41.8066 345.557 44.843 348.431 48.4444 350.423C52.0458 352.416 56.0943 353.46 60.21 353.46C62.5791 353.462 64.9362 353.125 67.21 352.46C116.41 338.09 231.21 287.03 234.21 123.85C235.46 60.84 189.35 6.72996 129.34 0.599958C113.017 -1.09532 96.5195 0.655502 80.9157 5.73913C65.3119 10.8228 50.9493 19.1259 38.7574 30.1113C26.5655 41.0967 16.8159 54.5195 10.1395 69.511C3.46315 84.5026 0.00879582 100.729 0 117.14C0 172.29 39.15 220.52 93.46 230.84ZM61.04 54.98C76.3493 41.0312 96.3292 33.3247 117.04 33.38C120.006 33.376 122.97 33.5262 125.92 33.83C168.78 38.18 201.68 77.44 200.82 123.21C198.73 236.13 137.59 286.96 86.96 309.73C102.96 288.06 115.57 265.73 124.52 243.18C126.244 238.837 126.996 234.169 126.723 229.505C126.45 224.84 125.159 220.292 122.94 216.18C120.585 211.83 117.305 208.049 113.331 205.104C109.358 202.158 104.787 200.119 99.94 199.13C84.8144 195.954 70.8625 188.655 59.6288 178.041C48.3951 167.426 40.3177 153.91 36.2907 138.988C32.2637 124.067 32.4443 108.322 36.8124 93.4968C41.1805 78.6716 49.5658 65.3442 61.04 54.9899V54.98Z" fill="black"/>
<path d="M306.29 342.07C308.476 345.557 311.513 348.431 315.114 350.423C318.716 352.416 322.764 353.461 326.88 353.46C329.249 353.46 331.606 353.123 333.88 352.46C383.07 338.09 497.81 287.03 500.88 123.85C502.06 60.85 455.98 6.71002 395.96 0.61002C379.64 -1.08228 363.146 0.670526 347.546 5.75501C331.945 10.8395 317.586 19.1424 305.398 30.1265C293.209 41.1106 283.462 54.5313 276.787 69.5201C270.113 84.509 266.659 100.732 266.65 117.14C266.65 172.29 305.8 220.52 360.11 230.84C349.11 258.54 331.81 285.93 308.6 312.28C305.012 316.311 302.844 321.406 302.427 326.786C302.01 332.166 303.367 337.534 306.29 342.07ZM391.16 243.16C392.889 238.819 393.645 234.151 393.374 229.486C393.102 224.82 391.811 220.272 389.59 216.16C387.235 211.808 383.955 208.025 379.982 205.076C376.008 202.127 371.437 200.084 366.59 199.09C351.464 195.914 337.512 188.615 326.279 178.001C315.045 167.386 306.968 153.87 302.941 138.948C298.914 124.027 299.094 108.282 303.462 93.4568C307.83 78.6316 316.216 65.3043 327.69 54.95C342.999 41.0013 362.979 33.2948 383.69 33.35C386.659 33.3466 389.626 33.4968 392.58 33.8C435.46 38.18 468.36 77.44 467.46 123.21C465.38 236.14 404.23 286.96 353.61 309.73C368.947 289.254 381.569 266.878 391.16 243.16V243.16Z" fill="black"/>
</g>
<defs>
<clipPath id="clip0_40_84">
<rect width="500.91" height="353.46" fill="white"/>
</clipPath>
</defs>
</svg>
