<svg width="11" height="10" viewBox="0 0 11 10" fill="none" xmlns="http://www.w3.org/2000/svg">
<path d="M4.26642 9.61508L4.26506 9.61479C4.18602 9.59772 4.13031 9.51056 4.14759 9.43089L4.14814 9.42821C4.16726 9.33511 4.25492 9.29064 4.31701 9.30479L4.31784 9.30497C4.70441 9.39168 5.08926 9.4284 5.48285 9.4284C8.19085 9.4284 10.4373 7.46532 10.4373 5C10.4373 2.53542 8.20313 0.571596 5.4943 0.571596C2.78677 0.571596 0.539839 2.52252 0.539839 5C0.539839 6.02741 0.919714 6.97757 1.6329 7.77144C1.6795 7.82516 1.68637 7.89015 1.66853 7.93406L1.66844 7.93402L1.66606 7.94037C1.55967 8.22403 1.42276 8.47129 1.25662 8.68425L0.911178 9.12702L1.47136 9.08741C1.82942 9.06209 2.24966 8.97276 2.64887 8.72256C2.72549 8.67729 2.80786 8.69976 2.85082 8.77464C2.90181 8.86352 2.87233 8.95663 2.80119 8.99954L2.80118 8.99953L2.79888 9.00095C2.03761 9.47145 1.19387 9.44427 0.756431 9.38862C0.631888 9.36843 0.544144 9.28267 0.519644 9.16334C0.493537 9.03618 0.547083 8.9028 0.646537 8.83193C0.922298 8.643 1.13226 8.39944 1.28737 8.09459L1.36055 7.95077L1.25962 7.82486C0.606602 7.01018 0.25004 6.02016 0.250042 5.02347L0.250037 5.02245C0.239252 2.40138 2.57624 0.25 5.4943 0.25C8.41284 0.25 10.75 2.40208 10.75 5C10.75 7.59792 8.41284 9.75 5.4943 9.75C5.07773 9.75 4.67235 9.70508 4.26642 9.61508ZM4.85821 6.49136L4.85746 6.49212C4.83059 6.51967 4.79534 6.53404 4.75028 6.53404C4.70557 6.53404 4.67052 6.5199 4.64373 6.49276L3.45433 5.2497L3.45453 5.24951L3.44609 5.24148C3.39299 5.19092 3.38346 5.09294 3.45268 5.02196L3.4528 5.02208L3.45901 5.01523C3.50495 4.96449 3.5893 4.9544 3.65517 5.02153C3.65531 5.02167 3.65545 5.02182 3.65559 5.02196L4.58168 5.9833L4.7602 6.16862L4.94029 5.98483L7.35548 3.52004L7.35562 3.52018L7.36222 3.51288C7.40827 3.46204 7.49288 3.45201 7.55881 3.51962L7.55868 3.51974L7.56539 3.52613C7.61843 3.57662 7.628 3.67439 7.55909 3.74535C7.55899 3.74545 7.5589 3.74554 7.55881 3.74564L4.85821 6.49136Z" stroke="#232323" stroke-width="0.5"/>
</svg>
