<svg width="69" height="69" viewBox="0 0 69 69" fill="black" xmlns="http://www.w3.org/2000/svg">
<path d="M25.0846 30.6741C22.0842 30.6741 19.1511 29.7844 16.6563 28.1174C14.1615 26.4505 12.2171 24.0812 11.0689 21.3091C9.92064 18.537 9.62021 15.4867 10.2056 12.5439C10.7909 9.60114 12.2358 6.89801 14.3574 4.77637C16.4791 2.65473 19.1822 1.20987 22.125 0.624513C25.0678 0.0391533 28.1181 0.339581 30.8901 1.4878C33.6622 2.63603 36.0315 4.58048 37.6985 7.07526C39.3654 9.57005 40.2552 12.5031 40.2552 15.5036C40.2643 16.1567 40.0198 16.7879 39.573 17.2644C39.1263 17.7409 38.5122 18.0256 37.8598 18.0586C37.5545 18.0745 37.249 18.0288 36.9617 17.9241C36.6744 17.8194 36.4111 17.6579 36.1876 17.4493C35.964 17.2406 35.7848 16.9891 35.6606 16.7097C35.5363 16.4303 35.4696 16.1287 35.4645 15.823V15.5036C35.4598 13.1074 34.6248 10.7869 33.1015 8.93726C31.5783 7.08759 29.461 5.82309 27.1102 5.35908C24.7593 4.89506 22.3204 5.26021 20.2085 6.39236C18.0967 7.52452 16.4426 9.35366 15.5278 11.5683C14.6131 13.783 14.4942 16.2463 15.1915 18.5388C15.8889 20.8312 17.3592 22.8111 19.3523 24.1413C21.3453 25.4715 23.7378 26.0697 26.1224 25.8342C28.5069 25.5986 30.7361 24.5438 32.4304 22.8493C32.6515 22.6159 32.9174 22.4295 33.2121 22.301C33.5068 22.1726 33.8244 22.1048 34.1459 22.1016C34.4674 22.0985 34.7862 22.1602 35.0834 22.2829C35.3806 22.4056 35.65 22.5869 35.8756 22.8159C36.1012 23.045 36.2784 23.3171 36.3967 23.6161C36.5149 23.9151 36.5717 24.2348 36.5637 24.5562C36.5558 24.8776 36.4832 25.1942 36.3503 25.4869C36.2174 25.7797 36.0269 26.0427 35.7903 26.2603C32.9447 29.0877 29.0961 30.6745 25.0846 30.6741V30.6741Z" fill="black"/>
<path d="M47.4416 68.9996H2.72836C2.09307 68.9996 1.48381 68.7473 1.03459 68.298C0.585375 67.8488 0.333008 67.2396 0.333008 66.6043V50.6353C0.333008 44.0706 2.9408 37.7749 7.58269 33.133C12.2246 28.4911 18.5203 25.8833 25.085 25.8833C31.6496 25.8833 37.9454 28.4911 42.5873 33.133C47.2291 37.7749 49.8369 44.0706 49.8369 50.6353V66.6043C49.8369 67.2396 49.5846 67.8488 49.1354 68.298C48.6861 68.7473 48.0769 68.9996 47.4416 68.9996V68.9996ZM5.12371 64.2089H45.0462V50.6353C45.0462 45.3412 42.9432 40.264 39.1997 36.5205C35.4563 32.7771 30.379 30.674 25.085 30.674C19.7909 30.674 14.7137 32.7771 10.9702 36.5205C7.22677 40.264 5.12371 45.3412 5.12371 50.6353V64.2089Z" fill="black"/>
<path d="M53.8288 37.0618C50.8283 37.0618 47.8952 36.1721 45.4005 34.5051C42.9057 32.8382 40.9612 30.4688 39.813 27.6968C38.6648 24.9247 38.3643 21.8744 38.9497 18.9316C39.5351 15.9888 40.9799 13.2857 43.1016 11.1641C45.2232 9.04242 47.9263 7.59757 50.8691 7.01221C53.8119 6.42685 56.8622 6.72728 59.6343 7.8755C62.4063 9.02372 64.7757 10.9682 66.4426 13.463C68.1096 15.9577 68.9993 18.8908 68.9993 21.8913C68.9943 25.9132 67.3943 29.7689 64.5504 32.6129C61.7064 35.4568 57.8507 37.0568 53.8288 37.0618V37.0618ZM53.8288 11.5114C51.7758 11.5114 49.769 12.1202 48.062 13.2607C46.3551 14.4013 45.0247 16.0224 44.239 17.9191C43.4534 19.8157 43.2478 21.9028 43.6484 23.9163C44.0489 25.9298 45.0375 27.7793 46.4891 29.2309C47.9408 30.6826 49.7903 31.6712 51.8038 32.0717C53.8173 32.4722 55.9043 32.2666 57.801 31.481C59.6976 30.6954 61.3187 29.365 62.4593 27.658C63.5999 25.951 64.2086 23.9442 64.2086 21.8913C64.2052 19.1394 63.1106 16.5012 61.1647 14.5553C59.2188 12.6095 56.5806 11.5148 53.8288 11.5114V11.5114Z" fill="black"/>
<path d="M53.8289 24.2862C53.1937 24.2862 52.5844 24.0338 52.1352 23.5846C51.686 23.1354 51.4336 22.5262 51.4336 21.8909V15.5033C51.4336 14.868 51.686 14.2587 52.1352 13.8095C52.5844 13.3603 53.1937 13.1079 53.8289 13.1079C54.4642 13.1079 55.0735 13.3603 55.5227 13.8095C55.9719 14.2587 56.2243 14.868 56.2243 15.5033V21.8909C56.2243 22.5262 55.9719 23.1354 55.5227 23.5846C55.0735 24.0338 54.4642 24.2862 53.8289 24.2862Z" fill="black"/>
<path d="M53.8295 30.674C53.5111 30.6723 53.1962 30.6071 52.9033 30.4823C52.6181 30.3614 52.3581 30.1881 52.1368 29.9713C51.9139 29.7494 51.7371 29.4856 51.6164 29.1951C51.4957 28.9046 51.4336 28.5932 51.4336 28.2786C51.4336 27.9641 51.4957 27.6526 51.6164 27.3621C51.7371 27.0716 51.9139 26.8079 52.1368 26.5859C52.3495 26.3588 52.6119 26.184 52.9033 26.0749C53.2298 25.9383 53.5826 25.8759 53.9361 25.8922C54.2897 25.9084 54.6352 26.0029 54.9478 26.1688C55.2604 26.3348 55.5323 26.568 55.7439 26.8517C55.9555 27.1354 56.1015 27.4626 56.1714 27.8095C56.2412 28.1565 56.2332 28.5146 56.148 28.8581C56.0627 29.2016 55.9023 29.5219 55.6783 29.7959C55.4543 30.0699 55.1722 30.2908 54.8525 30.4427C54.5328 30.5945 54.1834 30.6735 53.8295 30.674V30.674Z" fill="black"/>
</svg>
