<svg width="9" height="15" viewBox="0 0 9 15" fill="none" xmlns="http://www.w3.org/2000/svg">
<path d="M0.413363 0.391683C0.289758 0.515035 0.191695 0.661553 0.124786 0.822851C0.0578778 0.984148 0.0234375 1.15706 0.0234375 1.33168C0.0234375 1.50631 0.0578778 1.67922 0.124786 1.84052C0.191695 2.00181 0.289758 2.14833 0.413363 2.27168L5.58669 7.44502L0.413363 12.6183C0.16406 12.8677 0.0240021 13.2058 0.0240021 13.5583C0.0240021 13.9109 0.16406 14.249 0.413363 14.4984C0.662667 14.7477 1.00079 14.8877 1.35336 14.8877C1.70593 14.8877 2.04406 14.7477 2.29336 14.4984L8.41336 8.37835C8.53697 8.255 8.63503 8.10848 8.70194 7.94718C8.76885 7.78588 8.80329 7.61297 8.80329 7.43835C8.80329 7.26372 8.76885 7.09081 8.70194 6.92952C8.63503 6.76822 8.53697 6.6217 8.41336 6.49835L2.29336 0.378349C1.7867 -0.128317 0.933363 -0.128317 0.413363 0.391683Z" fill="#C0C1C3"/>
</svg>
