<svg width="81" height="113" viewBox="0 0 81 113" fill="none" xmlns="http://www.w3.org/2000/svg">
<g clip-path="url(#clip0_334_1712)">
<path d="M80.6638 21.4651C80.6621 21.3295 80.6621 21.271 80.6621 21.2576C80.6621 21.2827 80.6638 21.4651 80.6638 21.4651Z" fill="#D9FFFF"/>
<path d="M80.6638 21.4651C80.6621 21.3295 80.6621 21.271 80.6621 21.2576C80.6621 21.2827 80.6638 21.4651 80.6638 21.4651Z" fill="#D9FFFF"/>
<path d="M0.00167096 22.3555C0.00167096 22.3555 0 22.1731 0 22.1479C0 22.1613 0 22.2199 0.00167096 22.3555Z" fill="#D9FFFF"/>
<path d="M0.00167096 22.3555C0.00167096 22.3555 0 22.1731 0 22.1479C0 22.1613 0 22.2199 0.00167096 22.3555Z" fill="#D9FFFF"/>
<path d="M36.2198 3.81445C38.3641 1.84888 41.724 1.81154 43.9138 3.72622C52.4709 11.2083 64.159 17.3041 76.7182 20.5879C78.984 21.1804 80.6362 23.171 80.6622 25.5129C80.7104 29.8689 80.8072 38.5821 80.999 55.7978C81.3669 88.9247 52.7342 106.831 43.5141 111.876C42.1776 112.607 40.5806 112.644 39.222 111.955C29.9272 107.239 0.798827 89.7406 0.431761 56.6866C0.241017 39.471 0.143985 30.7572 0.0953962 26.4011C0.069278 24.0595 1.6769 22.0335 3.92861 21.3905C16.3931 17.8314 27.8552 11.4821 36.2198 3.81445Z" fill="#C0BFBF" fill-opacity="0.21"/>
<path d="M40.1635 6.58032C49.424 14.94 62.2202 21.4751 76.268 24.9904L76.6106 55.843C76.7677 69.9594 71.2267 82.7685 60.1449 93.9137C52.8628 101.237 45.1864 105.799 41.2881 107.854C41.1193 107.771 40.9338 107.675 40.7517 107.583L40.085 6.65565C40.11 6.62887 40.1368 6.60543 40.1635 6.58032Z" fill="#00AFFF"/>
<path d="M40.0831 6.65454L40.7499 107.582C36.6694 105.5 29.2486 101.188 22.1253 94.3327C10.7978 83.4353 4.97618 70.7518 4.81911 56.6353L4.47656 25.7828C18.4024 21.9695 31.0165 15.1816 40.0831 6.65454Z" fill="#6CD1FF"/>
<path d="M24.0835 51.2296L24.2422 75.132C24.2606 77.7935 56.8478 77.5793 56.8294 74.9177L56.6706 51.0154L24.0835 51.2296ZM36.4102 60.1719C36.3952 57.9539 38.1781 56.1527 40.4021 56.1393C42.6262 56.1243 44.4475 57.902 44.4609 60.12C44.4709 61.7404 43.5001 63.1549 42.1082 63.791L42.1533 70.5805C42.16 71.4828 41.4281 72.2377 40.5074 72.2427C39.6017 72.2494 38.8615 71.5045 38.8548 70.6023L38.8097 63.8278C37.3977 63.2084 36.4219 61.809 36.4102 60.1719Z" fill="white"/>
<path d="M26.9239 49.507L30.2224 49.4853L30.2123 47.8766C30.1756 42.3007 34.6955 37.7325 40.2866 37.6956C45.8793 37.6588 50.4594 42.1668 50.4962 47.7427L50.5062 49.3514L53.8047 49.3313L53.7947 47.7226C53.7462 40.3321 47.6773 34.3595 40.2649 34.408C32.8541 34.4566 26.8654 40.5096 26.9139 47.9L26.9239 49.507Z" fill="white"/>
</g>
<defs>
<clipPath id="clip0_334_1712">
<rect width="81" height="113" fill="white"/>
</clipPath>
</defs>
</svg>
