<svg width="22" height="22" viewBox="0 0 22 22" fill="none" xmlns="http://www.w3.org/2000/svg">
<path d="M11 6.66667C10.1429 6.66667 9.30514 6.92081 8.59253 7.39697C7.87992 7.87312 7.3245 8.54989 6.99652 9.34171C6.66854 10.1335 6.58273 11.0048 6.74993 11.8454C6.91713 12.686 7.32984 13.4581 7.93587 14.0641C8.5419 14.6702 9.31402 15.0829 10.1546 15.2501C10.9952 15.4173 11.8665 15.3315 12.6583 15.0035C13.4501 14.6755 14.1269 14.1201 14.603 13.4075C15.0792 12.6949 15.3333 11.8571 15.3333 11C15.332 9.85114 14.875 8.7497 14.0627 7.93733C13.2503 7.12496 12.1489 6.66799 11 6.66667ZM11 14.6667C10.2748 14.6667 9.56589 14.4516 8.96291 14.0487C8.35993 13.6458 7.88996 13.0732 7.61244 12.4032C7.33492 11.7332 7.26231 10.9959 7.40379 10.2847C7.54527 9.57341 7.89448 8.92007 8.40728 8.40728C8.92007 7.89448 9.57341 7.54527 10.2847 7.40379C10.9959 7.26231 11.7332 7.33492 12.4032 7.61244C13.0732 7.88996 13.6458 8.35993 14.0487 8.96291C14.4516 9.56589 14.6667 10.2748 14.6667 11C14.6655 11.9721 14.2788 12.9041 13.5915 13.5915C12.9041 14.2788 11.9721 14.6655 11 14.6667ZM19.3333 8.33333H18.5433C18.449 8.06744 18.3406 7.80674 18.2187 7.55233L18.778 6.993C19.0906 6.68044 19.2661 6.25652 19.2661 5.8145C19.2661 5.37248 19.0906 4.94856 18.778 4.636L17.364 3.222C17.0514 2.90945 16.6275 2.73386 16.1855 2.73386C15.7435 2.73386 15.3196 2.90945 15.007 3.222L14.4477 3.78133C14.1933 3.65935 13.9326 3.55097 13.6667 3.45667V2.66667C13.6661 2.2248 13.4904 1.80119 13.1779 1.48874C12.8655 1.17629 12.4419 1.00053 12 1H10C9.55814 1.00053 9.13452 1.17629 8.82207 1.48874C8.50963 1.80119 8.33386 2.2248 8.33333 2.66667V3.45667C8.06743 3.55097 7.80673 3.65935 7.55233 3.78133L6.993 3.222C6.68044 2.90945 6.25652 2.73386 5.8145 2.73386C5.37248 2.73386 4.94856 2.90945 4.636 3.222L3.222 4.636C2.90945 4.94856 2.73386 5.37248 2.73386 5.8145C2.73386 6.25652 2.90945 6.68044 3.222 6.993L3.78133 7.55233C3.65938 7.80674 3.55101 8.06744 3.45667 8.33333H2.66667C2.2248 8.33386 1.80119 8.50963 1.48874 8.82207C1.17629 9.13452 1.00053 9.55814 1 10V12C1.00053 12.4419 1.17629 12.8655 1.48874 13.1779C1.80119 13.4904 2.2248 13.6661 2.66667 13.6667H3.45667C3.55109 13.9325 3.65946 14.1932 3.78133 14.4477L3.222 15.007C2.90945 15.3196 2.73386 15.7435 2.73386 16.1855C2.73386 16.6275 2.90945 17.0514 3.222 17.364L4.636 18.778C4.94856 19.0906 5.37248 19.2661 5.8145 19.2661C6.25652 19.2661 6.68044 19.0906 6.993 18.778L7.55233 18.2187C7.80673 18.3407 8.06743 18.449 8.33333 18.5433V19.3333C8.33386 19.7752 8.50963 20.1988 8.82207 20.5113C9.13452 20.8237 9.55814 20.9995 10 21H12C12.4419 20.9995 12.8655 20.8237 13.1779 20.5113C13.4904 20.1988 13.6661 19.7752 13.6667 19.3333V18.5433C13.9326 18.449 14.1933 18.3407 14.4477 18.2187L15.007 18.778C15.3196 19.0906 15.7435 19.2661 16.1855 19.2661C16.6275 19.2661 17.0514 19.0906 17.364 18.778L18.778 17.364C19.0906 17.0514 19.2661 16.6275 19.2661 16.1855C19.2661 15.7435 19.0906 15.3196 18.778 15.007L18.2187 14.4477C18.3405 14.1932 18.4489 13.9325 18.5433 13.6667H19.3333C19.7752 13.6661 20.1988 13.4904 20.5113 13.1779C20.8237 12.8655 20.9995 12.4419 21 12V10C20.9995 9.55814 20.8237 9.13452 20.5113 8.82207C20.1988 8.50963 19.7752 8.33386 19.3333 8.33333ZM20.3333 12C20.3333 12.2652 20.228 12.5196 20.0404 12.7071C19.8529 12.8946 19.5986 13 19.3333 13H18.304C18.2331 13.0001 18.1641 13.0227 18.107 13.0647C18.0499 13.1066 18.0076 13.1657 17.9863 13.2333C17.8618 13.622 17.7049 13.9995 17.5173 14.362C17.4849 14.4248 17.4732 14.4963 17.4841 14.5662C17.4949 14.636 17.5277 14.7007 17.5777 14.7507L18.3067 15.4797C18.3995 15.5725 18.4732 15.6828 18.5235 15.8041C18.5737 15.9254 18.5996 16.0555 18.5996 16.1868C18.5996 16.3182 18.5737 16.4482 18.5235 16.5696C18.4732 16.6909 18.3995 16.8011 18.3067 16.894L16.8927 18.3067C16.7021 18.4885 16.4489 18.5899 16.1855 18.5899C15.9221 18.5899 15.6689 18.4885 15.4783 18.3067L14.7493 17.5777C14.6993 17.5277 14.6347 17.4949 14.5648 17.4841C14.495 17.4732 14.4235 17.4849 14.3607 17.5173C13.9986 17.7049 13.6215 17.8619 13.2333 17.9867C13.1658 18.0079 13.1067 18.0501 13.0648 18.1072C13.0228 18.1642 13.0001 18.2332 13 18.304V19.3333C13 19.5986 12.8946 19.8529 12.7071 20.0404C12.5196 20.228 12.2652 20.3333 12 20.3333H10C9.73478 20.3333 9.48043 20.228 9.29289 20.0404C9.10536 19.8529 9 19.5986 9 19.3333V18.304C8.99986 18.2332 8.97717 18.1642 8.93522 18.1072C8.89326 18.0501 8.83423 18.0079 8.76667 17.9867C8.378 17.862 8.00046 17.705 7.638 17.5173C7.57519 17.4849 7.50369 17.4732 7.43382 17.4841C7.36395 17.4949 7.29935 17.5277 7.24933 17.5777L6.52167 18.3067C6.33113 18.4885 6.07787 18.5899 5.8145 18.5899C5.55113 18.5899 5.29787 18.4885 5.10733 18.3067L3.69333 16.8927C3.60046 16.7998 3.52678 16.6896 3.47652 16.5682C3.42625 16.4469 3.40038 16.3168 3.40038 16.1855C3.40038 16.0542 3.42625 15.9241 3.47652 15.8028C3.52678 15.6814 3.60046 15.5712 3.69333 15.4783L4.42233 14.7493C4.47231 14.6993 4.50509 14.6347 4.51593 14.5648C4.52678 14.495 4.51513 14.4235 4.48267 14.3607C4.29518 13.9986 4.1383 13.6215 4.01367 13.2333C3.9924 13.1657 3.95014 13.1066 3.89302 13.0647C3.83589 13.0227 3.76688 13.0001 3.696 13H2.66667C2.40145 13 2.1471 12.8946 1.95956 12.7071C1.77202 12.5196 1.66667 12.2652 1.66667 12V10C1.66667 9.73478 1.77202 9.48043 1.95956 9.29289C2.1471 9.10536 2.40145 9 2.66667 9H3.696C3.76688 8.99993 3.83589 8.97728 3.89302 8.93532C3.95014 8.89336 3.9924 8.83428 4.01367 8.76667C4.13812 8.37798 4.29501 8.00043 4.48267 7.638C4.51513 7.57519 4.52678 7.50369 4.51593 7.43382C4.50509 7.36395 4.47231 7.29935 4.42233 7.24933L3.69333 6.52167C3.60046 6.42881 3.52678 6.31856 3.47652 6.19722C3.42625 6.07589 3.40038 5.94584 3.40038 5.8145C3.40038 5.68316 3.42625 5.55311 3.47652 5.43178C3.52678 5.31044 3.60046 5.20019 3.69333 5.10733L5.10733 3.69333C5.29787 3.51151 5.55113 3.41006 5.8145 3.41006C6.07787 3.41006 6.33113 3.51151 6.52167 3.69333L7.25067 4.42233C7.30068 4.47231 7.36529 4.50509 7.43515 4.51593C7.50502 4.52678 7.57652 4.51513 7.63933 4.48267C8.00137 4.29506 8.37846 4.13807 8.76667 4.01333C8.83423 3.99209 8.89326 3.94987 8.93522 3.89282C8.97717 3.83576 8.99986 3.76682 9 3.696V2.66667C9 2.40145 9.10536 2.1471 9.29289 1.95956C9.48043 1.77202 9.73478 1.66667 10 1.66667H12C12.2652 1.66667 12.5196 1.77202 12.7071 1.95956C12.8946 2.1471 13 2.40145 13 2.66667V3.696C13.0001 3.76682 13.0228 3.83576 13.0648 3.89282C13.1067 3.94987 13.1658 3.99209 13.2333 4.01333C13.622 4.138 13.9995 4.29499 14.362 4.48267C14.4248 4.51513 14.4963 4.52678 14.5662 4.51593C14.636 4.50509 14.7007 4.47231 14.7507 4.42233L15.4797 3.69333C15.6702 3.51151 15.9235 3.41006 16.1868 3.41006C16.4502 3.41006 16.7035 3.51151 16.894 3.69333L18.308 5.10733C18.4009 5.20019 18.4746 5.31044 18.5248 5.43178C18.5751 5.55311 18.601 5.68316 18.601 5.8145C18.601 5.94584 18.5751 6.07589 18.5248 6.19722C18.4746 6.31856 18.4009 6.42881 18.308 6.52167L17.579 7.25067C17.529 7.30068 17.4962 7.36529 17.4854 7.43515C17.4746 7.50502 17.4862 7.57652 17.5187 7.63933C17.7058 8.00137 17.8622 8.37847 17.9863 8.76667C18.0076 8.83428 18.0499 8.89336 18.107 8.93532C18.1641 8.97728 18.2331 8.99993 18.304 9H19.3333C19.5986 9 19.8529 9.10536 20.0404 9.29289C20.228 9.48043 20.3333 9.73478 20.3333 10V12Z" fill="#C0C1C3" stroke="#C0C1C3" stroke-width="0.4"/>
</svg>
