<svg width="23" height="20" viewBox="0 0 23 20" fill="none" xmlns="http://www.w3.org/2000/svg">
<path d="M12.961 0.145934C12.4915 -0.0246384 11.9809 -0.0462428 11.4988 0.0840684C11.0166 0.21438 10.5864 0.490261 10.2668 0.874078L7.07513 4.70897C6.96103 4.84596 6.81814 4.95613 6.65664 5.03164C6.49513 5.10715 6.31897 5.14615 6.14068 5.14586H2.42715C1.78343 5.14586 1.16607 5.40157 0.710895 5.85675C0.255716 6.31193 0 6.92929 0 7.57301V12.4273C0 13.071 0.255716 13.6884 0.710895 14.1436C1.16607 14.5987 1.78343 14.8544 2.42715 14.8544H6.14068C6.31897 14.8542 6.49513 14.8932 6.65664 14.9687C6.81814 15.0442 6.96103 15.1543 7.07513 15.2913L10.2668 19.1262C10.4937 19.3986 10.7775 19.618 11.0983 19.769C11.4191 19.92 11.7691 19.9988 12.1236 20C12.4089 19.9989 12.692 19.9497 12.961 19.8544C13.4301 19.6848 13.8355 19.3748 14.1221 18.9665C14.4088 18.5583 14.5627 18.0717 14.5629 17.5729V2.42745C14.5627 1.92864 14.4088 1.44201 14.1221 1.03377C13.8355 0.625538 13.4301 0.31553 12.961 0.145934Z" fill="white"/>
<line x1="22.3447" y1="2.92712" x2="22.3447" y2="16.49" stroke="white" stroke-linecap="round"/>
<line x1="18.7031" y1="5.35425" x2="18.7031" y2="14.0628" stroke="white" stroke-linecap="round"/>
</svg>
