<svg width="25" height="17" viewBox="0 0 25 17" fill="none" xmlns="http://www.w3.org/2000/svg">
<path d="M19.2153 10.9876V6.53028C19.2153 6.26808 19.3464 6.00589 19.5212 5.83109L23.3667 2.72847C23.9348 2.24778 24.8088 2.68477 24.8088 3.42765V14.0902C24.8088 14.8331 23.9785 15.2264 23.3667 14.7894L19.5212 11.6867C19.3464 11.5119 19.2153 11.2498 19.2153 10.9876ZM18.3414 14.5709V2.90327C18.3414 1.6797 17.38 0.718323 16.1564 0.718323H2.95936C1.73579 0.718323 0.774414 1.6797 0.774414 2.90327V14.5709C0.774414 15.7944 1.73579 16.7558 2.95936 16.7558H16.1564C17.38 16.7558 18.3414 15.7944 18.3414 14.5709Z" fill="white"/>
</svg>
