<svg width="56" height="56" viewBox="0 0 56 56" fill="none" xmlns="http://www.w3.org/2000/svg">
<circle cx="28" cy="28" r="28" fill="#050811" fill-opacity="0.35"/>
<path d="M34.2153 29.9876V25.5303C34.2153 25.2681 34.3464 25.0059 34.5212 24.8311L38.3667 21.7285C38.9348 21.2478 39.8088 21.6848 39.8088 22.4277V33.0902C39.8088 33.8331 38.9785 34.2264 38.3667 33.7894L34.5212 30.6867C34.3464 30.5119 34.2153 30.2498 34.2153 29.9876ZM33.3414 33.5709V21.9033C33.3414 20.6797 32.38 19.7183 31.1564 19.7183H17.9594C16.7358 19.7183 15.7744 20.6797 15.7744 21.9033V33.5709C15.7744 34.7944 16.7358 35.7558 17.9594 35.7558H31.1564C32.38 35.7558 33.3414 34.7944 33.3414 33.5709Z" fill="white"/>
</svg>
