<svg width="33" height="33" viewBox="0 0 33 33" fill="none" xmlns="http://www.w3.org/2000/svg">
<circle cx="16.0244" cy="16.0244" r="16.0244" fill="white"/>
<path d="M20.2961 17.5235V14.5545C20.2961 14.3798 20.3834 14.2051 20.4999 14.0887L23.0615 12.022C23.4399 11.7018 24.022 11.9929 24.022 12.4877V19.5903C24.022 20.0851 23.469 20.3471 23.0615 20.056L20.4999 17.9893C20.3834 17.8729 20.2961 17.6982 20.2961 17.5235ZM19.7139 19.9105V12.1384C19.7139 11.3234 19.0735 10.683 18.2585 10.683H9.46765C8.6526 10.683 8.01221 11.3234 8.01221 12.1384V19.9105C8.01221 20.7255 8.6526 21.3659 9.46765 21.3659H18.2585C19.0735 21.3659 19.7139 20.7255 19.7139 19.9105Z" fill="#232323"/>
</svg>
